<?xml version="1.0" encoding="UTF-8"?>
<svg xmlns="http://www.w3.org/2000/svg" width="155" height="257" viewBox="0 0 155 257" fill="none">
  <path d="M125.747 229.086C124.499 237.943 115.763 242.281 108.659 247.071C102.323 251.409 95.4105 254.662 87.4423 255.295C75.442 256.199 62.9617 253.307 51.3454 252.855C31.0888 252.222 9.68028 246.8 -4.62409 232.611C-21.7125 215.801 -21.5205 189.321 -25.2646 167.451C-27.9527 152.178 -30.6408 136.362 -27.7607 120.908C-25.2646 107.533 -18.1604 96.0551 -14.3203 83.0412C-10.3842 70.0273 -6.83214 59.6342 3.15212 49.7834C9.8723 43.3668 16.8805 36.9502 23.1206 30.1722C28.4008 24.4786 30.5128 16.616 35.505 10.4706C43.7612 0.16787 57.5855 -0.464751 69.7778 3.69247C80.0501 7.1267 87.6343 12.0973 91.9544 22.0385C94.9305 28.7262 95.0265 36.2273 98.0986 42.7342C100.115 46.8914 102.995 50.5968 106.547 53.6695C109.043 55.8385 114.899 57.1037 116.627 58.8209C119.987 62.1647 116.915 67.0449 113.459 70.208C107.123 75.9016 93.2025 78.4321 84.7542 77.5284C77.074 76.6246 71.8899 69.0332 64.5937 73.4615C62.0017 74.9979 59.3136 76.8957 56.2415 76.6246C52.5934 76.2631 50.1933 72.7385 49.5213 69.3043C48.8493 65.87 49.4253 62.3454 48.7533 58.9112C48.0813 55.2962 46.1612 52.0428 44.7212 48.6989C39.3451 36.3176 51.6334 21.8577 62.2897 15.3507C66.9938 12.4588 73.2339 10.2898 78.0341 13.001C86.0023 17.339 82.9302 27.5513 81.1062 34.1487C78.8981 41.9209 81.5862 51.2294 76.498 58.2786C74.386 61.1706 70.8339 62.0743 68.6258 64.5144C66.2258 67.1353 64.7857 71.7444 62.8657 74.7267C61.3296 77.1668 59.6976 79.6974 57.1055 81.1433C51.4414 84.3064 45.2972 82.7701 40.6891 78.884C32.9129 72.377 23.5047 65.87 13.5204 62.9781C8.91227 61.6224 2.48011 60.8995 6.60822 66.9546C9.20028 70.7503 14.0964 72.9193 18.3205 74.6364C26.3847 78.0104 34.4489 81.3843 42.5131 84.7583C46.0652 86.2947 53.2654 88.7348 55.3775 92.0786C55.9535 93.0727 56.2415 94.2476 56.4335 95.4225C57.8735 102.201 60.6576 108.256 63.3457 114.582C65.6497 119.824 68.3378 124.342 70.4499 129.313C75.442 140.7 86.0023 148.924 96.4665 155.883C101.267 159.046 106.259 161.215 111.347 163.926C117.011 166.909 119.603 171.97 122.771 177.211C126.547 183.417 130.291 189.623 134.003 195.828C137.364 201.432 143.988 212.728 140.244 219.326C135.924 226.917 128.723 221.133 129.587 214.084C131.219 200.166 140.052 188.056 146.196 175.223C153.396 160.131 156.948 142.417 150.516 126.963" stroke="#0D2554" stroke-width="1.4" stroke-linecap="round" stroke-linejoin="round"></path>
</svg>
