<?xml version="1.0" encoding="UTF-8"?>
<svg xmlns="http://www.w3.org/2000/svg" width="20" height="20" viewBox="0 0 20 20" fill="none">
  <path d="M5.2329 0.0820475C4.58359 0.286669 4.11854 0.856997 4.03518 1.54923C3.99131 1.92364 3.98692 6.5864 4.03079 6.70395C4.05273 6.76926 4.15802 6.8215 4.41248 6.89551C4.60113 6.95211 4.76346 6.99565 4.77224 7C4.77662 7 4.78101 5.76792 4.78101 4.26591V1.53181L4.89508 1.30542C4.97405 1.15305 5.07496 1.03114 5.21096 0.935363L5.41716 0.796046L9.36568 0.782985C11.5374 0.778632 13.3756 0.782986 13.4502 0.796046C13.6915 0.839583 13.9767 1.06162 14.0995 1.30542L14.2136 1.53181V3.80007V5.84622L14.569 5.87234C14.7664 5.88975 14.9463 5.88975 14.9638 5.87669C15.0121 5.84622 15.0121 1.98895 14.9638 1.56664C14.8892 0.935363 14.4461 0.343267 13.8758 0.112523L13.6213 0.0123887L9.56311 0.00368166C5.63652 -0.00502586 5.49613 -0.00502539 5.2329 0.0820475Z" fill="#0D2554"></path>
  <path d="M8.3973 2.05118C8.35744 2.08731 8.34416 2.37234 8.34416 3.09493V4.09051H7.24154C6.27178 4.09051 6.1345 4.09854 6.08136 4.15875C6.00166 4.24305 5.96623 6.0094 6.04151 6.13786C6.08579 6.21413 6.13007 6.21815 7.21498 6.21815H8.34416V6.66776V8L9.18507 6.97897C10.0618 6.18011 10.8239 5.55978 12.4712 5.41125L12.9937 5.36308L12.9982 4.85726C13.0026 4.58027 12.9982 4.31531 12.9937 4.27116C12.9716 4.09452 12.9495 4.09051 11.7937 4.09051H10.6911V3.09493C10.6911 2.37234 10.6778 2.08731 10.638 2.05118C10.5627 1.98294 8.47258 1.98294 8.3973 2.05118Z" fill="#0D2554"></path>
  <path d="M0.0106456 5.06725C-0.0361934 5.19896 0.0809041 7.12889 0.179266 7.75194C0.464984 9.66161 1.03174 11.0343 1.98257 12.1234C2.46969 12.6857 2.85846 12.9947 3.52826 13.3493C4.43225 13.8355 5.33156 14.0432 6.33391 13.9926C7.21917 13.952 7.19107 14.0179 6.67584 13.0909C5.3784 10.7507 3.91234 8.84101 2.53995 7.70129C1.96852 7.22513 1.93105 7.17448 2.31044 7.39736C4.0107 8.39019 5.65943 10.0972 7.19107 12.4375C7.40184 12.7566 7.60325 13.0656 7.64072 13.1162C7.7063 13.2125 7.71567 13.1973 7.78124 12.939C7.98733 12.1791 8.05759 11.1661 7.94986 10.462C7.77656 9.29184 7.14423 8.24329 6.18403 7.53413C5.35498 6.92121 4.61492 6.60208 3.41116 6.32855C1.83268 5.9689 0.970846 5.63965 0.286996 5.13817C0.0621685 4.97101 0.0434329 4.96595 0.0106456 5.06725Z" fill="#0D2554"></path>
  <path d="M14.093 6.0206C13.7481 6.04047 13.1863 6.11994 12.8462 6.18948C10.8751 6.59182 9.62831 7.55543 9.09609 9.0853C8.97782 9.42306 8.97782 9.45287 9.04681 9.62671C9.15523 9.88997 9.2735 10.3569 9.33756 10.8039L9.39177 11.1914L9.69237 10.9231C10.4759 10.2178 11.6093 9.35352 12.521 8.77237C13.0335 8.44951 14.2162 7.78392 14.1472 7.86339C14.1324 7.87829 13.9452 8.02731 13.7234 8.19122C12.93 8.78231 12.0824 9.53234 11.1363 10.486C9.98312 11.6434 9.32278 12.4182 9.43119 12.4828C9.65295 12.602 10.609 12.8802 11.0525 12.9497C11.9149 13.0838 12.866 12.9447 13.5706 12.5921C14.7189 12.0109 15.6502 10.8039 16.2859 9.0853C16.5767 8.29553 17.0744 6.21928 16.9906 6.13484C16.897 6.04047 14.9406 5.96099 14.093 6.0206Z" fill="#0D2554"></path>
  <path d="M14.2432 13.2016C13.6872 13.5952 12.9294 13.8879 12.1717 14.0079C11.9404 14.0463 11.532 14.0607 11.1138 14.0463L10.4299 14.0223L8.80614 14.5167C7.91555 14.7903 7.13321 15.0495 7.06432 15.1023C6.58212 15.4526 6.60673 16.1438 7.11845 16.4702L7.33002 16.6046L9.39658 16.5854C11.3057 16.571 11.4927 16.5614 11.8568 16.4702C12.0733 16.4126 12.2553 16.3742 12.2602 16.379C12.2652 16.3838 11.8912 16.5614 11.4238 16.7678L10.5775 17.1517H8.90454C7.26114 17.1517 7.22669 17.1517 6.9856 17.0414C6.85275 16.979 6.66577 16.8638 6.5772 16.7774C6.40499 16.619 6.17373 16.2254 6.17373 16.0958C6.17373 16.0526 6.14421 16.0094 6.11469 15.9998C6.08025 15.9902 4.86491 15.827 3.41832 15.6398C1.11558 15.3375 0.761316 15.3039 0.589102 15.3519C0.17579 15.4718 -0.0899102 15.9566 0.0281789 16.3742C0.0921438 16.6142 0.377526 16.907 0.613704 16.9742C0.707191 17.003 2.67042 17.6413 4.96824 18.3997C7.27098 19.158 9.28341 19.8204 9.44579 19.8732C10.0559 20.07 10.8875 20.0364 11.6108 19.782C11.8026 19.7148 12.211 19.5372 12.521 19.3836C13.205 19.0524 15.0452 18.3277 16.1621 17.9533L16.974 17.6797L18.4747 17.6557L19.9754 17.6317L19.9902 15.3135L20 13L17.2593 13.0048L14.5138 13.0096L14.2432 13.2016Z" fill="#0D2554"></path>
</svg>
