<?xml version="1.0" encoding="UTF-8"?>
<svg xmlns="http://www.w3.org/2000/svg" width="285" height="231" viewBox="0 0 285 231" fill="none">
  <path d="M6.94585 107.311C13.0968 114.074 23.162 114.802 31.4378 111.785C50.0024 105.022 65.5475 87.1264 70.9156 69.4387C72.5932 63.8203 73.7115 57.8897 75.0535 52.0632C75.2772 50.9534 75.5381 49.8089 75.8364 48.6297C78.2968 34.2715 85.1187 19.8093 98.4271 11.0695C122.36 -4.43323 155.463 0.87308 178.166 15.4394C179.06 15.9943 179.955 16.5145 180.85 17.0001C185.323 19.7052 189.349 21.9942 194.717 22.4104C201.763 23.0346 208.92 22.3063 215.854 21.474C257.904 15.8555 320.532 23.6589 338.649 66.1093C345.248 81.612 343.235 98.9875 337.978 114.698C336.748 118.548 335.071 122.398 334.847 126.351C333.84 140.501 349.833 147.889 358.556 156.941C368.174 166.929 375.108 179.102 378.574 192.212C378.91 193.356 379.134 194.501 378.91 195.645C378.463 197.206 377.121 198.351 375.779 199.391C371.082 203.033 357.326 214.79 351.622 209.795C346.925 205.842 347.037 197.726 344.017 192.732C338.649 183.888 331.156 176.293 323.663 169.01C315.388 160.998 307.447 152.05 301.073 142.686C298.612 139.149 293.468 132.386 294.698 127.808C296.935 119.796 306.664 125.831 309.796 130.201C319.302 143.935 320.085 162.767 319.973 178.478C319.973 186.906 320.867 195.229 320.308 203.657C319.861 211.356 318.854 218.639 317.848 226.13C317.848 226.755 317.736 227.379 317.401 227.899C314.828 231.853 295.257 229.98 291.678 227.067C287.764 223.946 291.567 216.142 292.238 212.188C293.132 206.778 293.691 201.16 293.356 195.645C293.132 190.755 292.014 185.865 290.001 181.391C282.396 164.952 259.694 157.669 242.247 154.339C226.367 151.322 205.23 152.467 205.342 171.923C205.453 187.946 208.249 204.385 207.019 220.2C207.019 221.24 206.795 222.281 206.013 222.905C205.342 223.425 204.335 223.425 203.44 223.321C199.079 223.217 181.856 227.067 181.633 221.24C181.297 210.004 180.291 199.391 177.83 188.258C175.482 176.813 173.133 165.16 175.705 153.507C177.606 144.663 182.639 135.923 191.027 131.45C194.158 129.785 198.855 129.161 200.645 132.074C201.875 134.051 200.868 136.548 199.75 138.525C195.612 145.912 189.237 152.154 181.633 156.42C174.922 160.27 168.1 160.062 161.39 162.559C152.555 165.784 147.075 174.732 143.497 182.432C141.596 186.593 139.918 191.067 138.911 195.541C138.24 198.246 139.023 204.593 137.122 206.674C134.103 209.9 104.69 212.188 102.901 208.027C101.559 204.905 105.808 196.166 106.815 193.044C108.38 188.327 110.244 183.749 112.407 179.31C112.705 178.755 113.003 178.2 113.301 177.646C119.452 165.888 127.169 154.444 135.221 143.727C141.26 135.715 138.8 125.415 135.109 116.675C131.866 108.976 127.057 101.901 123.366 94.4095C122.695 93.0223 122.062 91.6696 121.465 90.3517C120.943 89.0338 120.459 87.7507 120.011 86.5021C117.775 79.6352 116.544 72.456 116.768 65.3809C116.843 63.9937 116.954 62.6064 117.104 61.2191C120.682 27.4045 153.45 7.42791 186.665 24.6994C187.933 25.393 189.163 26.1213 190.356 26.8843C197.401 31.7744 204.671 37.8091 205.565 46.2367C206.46 53.5199 200.421 58.7221 194.829 62.8839C193.711 63.6469 192.592 64.3405 191.474 64.9648C187.895 66.9417 184.093 68.3982 180.291 69.5427C178.948 70.2711 178.501 71.9358 177.942 73.4965C177.718 74.537 177.606 75.4733 177.495 76.5138C177.047 80.5715 176.824 84.7333 174.587 88.1668C163.515 105.022 138.464 90.9761 122.248 91.7044C115.538 92.0165 108.492 91.2882 102.006 93.5772C97.1969 95.3459 92.9472 98.1551 89.0329 101.276C83.1057 105.75 77.1784 111.265 76.0601 118.444C75.8364 119.796 76.06 121.565 77.5139 122.085C78.1849 122.398 78.8559 122.294 79.5269 122.085C87.0199 120.421 92.1643 114.074 95.7431 107.727C98.0916 103.461 103.348 92.9529 96.3022 91.3922C90.8223 90.1437 86.6844 95.3459 83.6648 98.5713C70.9156 112.409 52.9101 124.27 33.5626 122.398C27.0762 121.773 20.7016 119.588 15.3335 116.155C1.68959 107.415 -3.00749 86.5021 4.70915 73.2884C17.3465 51.647 33.1153 29.9016 16.8992 7.53195" stroke="#0D2554" stroke-width="1.4" stroke-linecap="round" stroke-linejoin="round"></path>
</svg>
