<?xml version="1.0" encoding="UTF-8"?>
<svg xmlns="http://www.w3.org/2000/svg" width="208" height="127" viewBox="0 0 208 127" fill="none">
  <mask id="path-1-outside-1_2989_502" maskUnits="userSpaceOnUse" x="-0.125977" y="-0.724609" width="208" height="128" fill="black">
    <rect fill="white" x="-0.125977" y="-0.724609" width="208" height="128"></rect>
    <path d="M117.612 0.92189C116.503 1.17789 115.372 2.05256 115.01 2.94855C114.348 4.52722 114.69 6.83122 116.716 14.6606C118.508 21.5299 118.956 25.7326 118.978 35.6739C118.978 43.1832 119.34 45.4232 121.154 49.0926C123.031 52.8899 125.548 54.7886 130.391 56.0472C131.543 56.3459 132.631 56.6872 132.844 56.7939C133.378 57.0712 133.506 58.4579 133.271 61.4019C132.652 68.7619 131.116 74.1379 126.914 83.5672C124.204 89.6686 123.479 92.5272 122.498 100.847C121.623 108.399 121.388 109.701 121.047 109.103C120.727 108.634 120.471 105.605 120.151 99.0339C119.596 87.3432 119.02 82.9486 117.143 76.5912C115.244 70.0846 113.708 67.8232 112.364 69.5299C111.938 70.0632 111.895 70.2766 112.023 71.8126C112.108 72.7512 112.599 75.8659 113.132 78.7459C114.732 87.4499 115.138 90.6286 115.564 97.8606C115.991 105.199 116.695 108.805 118.103 111.023C118.828 112.175 119.447 112.559 120.172 112.389C120.812 112.218 120.727 112.026 122.263 117.167C124.162 123.525 124.162 123.567 123.692 124.207C122.86 125.359 119.127 126.106 116.29 125.701C113.324 125.295 111.511 124.122 111.511 122.629C111.511 120.922 113.154 120.09 117.847 119.429C119.639 119.194 121.111 118.938 121.111 118.874C121.111 118.81 120.578 118.554 119.938 118.298C118.871 117.85 118.402 117.807 115.159 117.807C110.871 117.807 110.978 117.871 110.551 115.226C110.103 112.367 109.292 109.381 106.54 100.314C104.855 94.7672 104.108 91.5459 102.978 84.9539C101.847 78.4046 101.527 76.9112 101.164 76.7619C100.503 76.5272 100.354 77.2099 100.503 79.7912C100.887 86.0419 101.826 91.1406 104.684 102.405C107.052 111.706 107.159 113.029 105.559 113.861C105.218 114.031 104.279 114.266 103.468 114.415C101.634 114.714 101.015 114.501 100.439 113.37C99.8631 112.218 98.7964 111.215 97.6444 110.682C96.2791 110.063 93.2284 110.085 91.0098 110.725C88.0444 111.578 86.9138 111.301 84.8018 109.125C82.0924 106.309 79.9378 101.53 79.9378 98.2659V96.9859L81.7511 97.0712L83.5858 97.1779L84.3751 96.3246C85.3351 95.3219 86.1884 93.2526 88.6418 86.0206C92.7591 73.9246 94.5084 70.6606 101.271 62.3406C104.087 58.8846 105.367 55.7059 105.388 52.1006C105.41 48.3459 104.13 45.8499 99.6711 40.9219C95.3618 36.1646 94.8924 35.4606 94.8711 33.8606C94.8711 32.1752 96.2578 30.5539 97.7511 30.5539C98.7751 30.5539 100.61 29.5299 101.1 28.6979C101.335 28.3139 101.762 27.9299 102.039 27.8659C102.551 27.7379 104.108 27.8446 105.474 28.1219C106.092 28.2286 106.199 28.1646 106.583 27.5459C107.18 26.5646 107.138 26.1166 106.391 25.6899C106.05 25.4979 105.794 25.2206 105.836 25.1139C105.922 24.8152 106.626 24.9646 107.116 25.3912C107.735 25.9672 110.295 25.8606 111.447 25.2419C112.364 24.7512 112.364 24.7512 114.37 25.0926C116.503 25.4552 117.314 25.3486 117.847 24.6446C118.21 24.1752 117.911 23.7059 116.204 22.0206C115.095 20.9326 114.54 20.1219 113.538 18.1806C111.98 15.1726 110.487 13.4872 109.399 13.4872C108.46 13.4872 107.522 14.4686 106.839 16.1752C106.114 17.9886 105.751 18.2872 103.767 18.8206C98.4551 20.2286 95.0631 21.8712 92.9511 24.0259L91.7778 25.2206L89.5804 24.3459C88.2364 23.8339 86.8711 23.4499 86.0391 23.3646C84.7164 23.2366 84.6311 23.2792 84.0338 23.8766C82.5618 25.3272 83.0524 29.4019 85.0578 32.3459C86.0391 33.7966 85.9751 33.4126 85.9964 37.2739L86.0178 40.2606L86.7644 41.6472C87.3191 42.6712 88.4924 44.0366 91.2658 46.8739C95.4471 51.1832 95.9804 51.9939 95.9591 53.9566C95.9591 55.8766 95.4471 57.0712 92.3964 62.2979C89.2391 67.6526 87.7884 70.7672 84.3751 79.5139C81.5591 86.6819 80.2578 90.3939 79.6178 92.9966C79.2978 94.2552 78.9564 95.3859 78.8711 95.4712C78.7858 95.5779 75.4151 94.0632 71.3831 92.0792C59.4364 86.2766 56.4498 84.9539 51.9911 83.5032C47.5751 82.0739 44.2684 81.5406 39.8097 81.5406C30.7218 81.5406 21.4417 84.0579 12.2471 89.0499C6.18841 92.3139 0.0657477 96.2179 0.961748 96.2606C1.11108 96.2606 2.83908 95.2792 4.80175 94.0632C15.7457 87.3006 23.3831 84.1646 32.4711 82.6712C35.7778 82.1379 43.3298 82.1592 46.3377 82.6926C50.3271 83.4179 54.4018 84.8472 61.0578 87.8552C65.7511 89.9672 77.6551 95.9406 78.3591 96.5379C78.9351 97.0286 79.0418 97.2846 79.1698 98.5432C79.5751 102.426 82.0924 107.482 84.9084 110.063C87.0844 112.026 88.1724 112.261 91.3298 111.322C93.8684 110.575 95.7671 110.575 97.3244 111.301C98.7751 111.983 99.9911 113.306 99.9911 114.181C99.9911 114.821 99.9698 114.821 98.8604 114.821C97.1538 114.821 90.9031 114.202 89.3031 113.861C86.2524 113.242 83.8844 111.471 81.6444 108.143C79.3191 104.73 78.5938 104.154 76.5884 104.154C72.8124 104.154 68.6524 106.714 67.0098 110.042C66.4764 111.13 66.3911 111.535 66.3911 113.157C66.3911 114.949 66.4124 115.013 67.2444 116.25C69.3138 119.258 74.4977 121.946 81.1324 123.482C84.5031 124.25 89.4311 124.442 92.1191 123.887C95.3191 123.247 97.6871 121.733 99.3298 119.301C99.7991 118.597 100.332 117.509 100.503 116.869C100.695 116.25 100.951 115.631 101.1 115.525C101.25 115.397 101.975 115.247 102.679 115.183C104.087 115.034 106.05 114.373 106.668 113.818C106.86 113.626 107.138 113.114 107.266 112.687C107.586 111.663 107.244 109.957 105.111 101.509C102.572 91.3966 101.25 84.5059 101.292 81.4126C101.314 79.3006 101.527 80.0899 102.551 86.1059C103.596 92.3352 104.236 95.0232 106.071 100.954C107.671 106.181 109.079 111.258 109.911 114.821C110.231 116.165 110.615 117.594 110.786 117.999L111.084 118.725L112.642 118.575C116.418 118.234 117.442 118.191 117.826 118.405C118.124 118.575 117.975 118.661 116.93 118.874C112.45 119.77 111.682 120.111 110.999 121.519C110.658 122.223 110.636 122.437 110.871 123.205C111.255 124.506 112.45 125.594 113.794 125.871C116.866 126.533 121.324 126.362 122.988 125.509C124.93 124.527 124.994 123.887 123.564 119.599C122.22 115.546 121.474 112.389 121.602 111.322C121.666 110.831 121.9 109.381 122.135 108.101C122.391 106.799 122.818 103.514 123.138 100.805C124.012 92.8046 124.652 90.3512 127.639 83.5459C132.14 73.2846 133.911 66.2446 133.911 58.6499V56.5806H137.175C140.29 56.5806 143.81 56.3459 152.151 55.6419C163.65 54.6392 174.828 54.6392 180.204 55.6419C186.092 56.7085 192.087 58.7139 200.364 62.4046C203.82 63.9192 206.7 65.1139 206.978 65.1139C207.383 65.1139 206.914 64.6872 206.082 64.2819C197.058 59.8232 187.607 56.4312 180.844 55.2152C174.188 54.0206 164.78 53.9779 151.938 55.0872C145.303 55.6632 138.178 56.1539 136.407 56.1539C134.658 56.1539 133.783 55.7699 133.612 54.9379C133.548 54.5965 133.399 51.8446 133.271 48.7939C132.674 33.5832 132.439 30.4686 131.65 26.2872C129.602 15.4499 125.826 5.52989 122.455 2.24456C120.94 0.751228 119.724 0.431229 117.612 0.92189ZM120.578 1.66856C121.26 1.98856 122.092 2.60722 122.583 3.18323C124.887 5.89256 127.383 11.6952 129.431 19.2259C131.308 26.0739 131.82 30.1486 132.311 42.0739C132.631 49.9246 132.994 55.4499 133.207 55.8126C133.506 56.2819 129.346 55.2579 127.575 54.4259C124.738 53.0819 122.946 51.2899 121.474 48.3459C119.852 45.1032 119.66 43.6312 119.404 32.4739C119.276 26.2446 119.106 22.9592 118.871 21.3806C118.679 20.1646 117.762 16.1539 116.823 12.4846C115.906 8.81522 115.138 5.40189 115.138 4.91122C115.138 3.63123 115.863 2.64989 117.42 1.79656C118.103 1.43389 118.828 1.11389 119.042 1.11389C119.255 1.11389 119.959 1.36989 120.578 1.66856ZM110.679 14.9166C111.234 15.4499 112.044 16.7512 113.068 18.6926C114.455 21.4019 114.711 21.7646 115.884 22.6606C116.652 23.2579 117.164 23.8126 117.164 24.0686C117.164 24.4099 116.972 24.4739 115.842 24.5379C113.815 24.6446 113.09 24.3672 110.871 22.7459C110.231 22.2766 109.954 22.2126 109.015 22.2766C108.055 22.3619 107.756 22.5112 106.882 23.3219C106.327 23.8552 105.218 24.5806 104.428 24.9859C103.255 25.5619 102.956 25.8179 102.764 26.3939C102.636 26.7992 102.359 27.1832 102.146 27.2472C101.719 27.3752 100.738 27.0766 100.546 26.7352C100.311 26.3939 98.7964 26.2446 97.8364 26.5006C96.5991 26.8419 95.1911 28.2286 95.4044 28.8899C95.7884 30.1699 95.7671 30.3406 95.1271 31.0659C94.7004 31.5566 94.4231 32.1539 94.3164 32.7939C93.9964 35.0552 94.4871 36.0792 97.6871 39.7059C101.548 44.0366 102.807 45.6579 103.575 47.1726L104.364 48.7726V52.3992V56.0472L103.596 57.6472C102.807 59.2899 101.57 61.0392 98.4978 64.7939C93.8044 70.5539 91.8844 74.4579 87.6391 86.9379C86.4444 90.4366 85.2498 93.8072 84.9724 94.4259C84.2684 96.0259 83.6071 96.4739 81.9858 96.4739C81.2178 96.4739 80.4924 96.3459 80.2578 96.1966C79.3191 95.4926 80.3857 91.5459 84.0978 81.9672C87.8951 72.2179 89.9218 67.7806 93.1004 62.4046C96.2791 57.0072 96.4284 56.6872 96.5351 54.9592C96.6418 53.1245 96.2578 51.6952 95.2338 50.2019C94.8711 49.6686 93.1218 47.7699 91.3511 46.0206C87.0204 41.7326 86.5724 40.7726 86.5511 35.6526C86.5511 33.6472 86.5298 33.6046 85.6978 32.2392C84.1404 29.7859 84.0978 29.6152 84.0978 26.9699C84.0978 24.2179 84.2471 23.9406 85.7191 23.9406C86.5724 23.9406 90.0924 25.1139 90.3058 25.4766C90.5618 25.9032 90.1778 25.8819 88.8551 25.4552C85.8684 24.4739 84.9724 24.6232 84.7804 26.1166C84.3111 29.5299 87.2551 34.0312 89.4098 33.1992C90.1991 32.9006 92.3111 28.3992 92.3111 26.9699C92.3324 24.1539 96.4711 21.4446 103.554 19.5672C106.583 18.7566 106.434 18.8846 107.33 16.7086C108.482 13.9352 109.207 13.5512 110.679 14.9166ZM110.338 23.0659C110.53 23.3859 110.082 23.5566 108.716 23.6632C107.436 23.7912 107.052 23.5566 107.842 23.1086C108.311 22.8312 110.167 22.8099 110.338 23.0659ZM110.871 24.5806C111.34 24.8792 110.594 25.0926 109.122 25.1139C107.842 25.1139 107.372 24.9006 107.884 24.5806C108.29 24.3246 110.466 24.3246 110.871 24.5806ZM88.0444 25.8606C89.0898 26.2232 90.3058 26.5006 90.9031 26.5006H91.9484L91.7991 27.1832C91.7351 27.5672 91.1164 28.9966 90.4551 30.3406C89.5164 32.1966 89.1111 32.8152 88.7698 32.8579C87.2764 33.0712 84.5671 27.6099 85.2498 25.7966C85.5271 25.0712 85.8258 25.0712 88.0444 25.8606ZM106.178 26.6926C106.178 26.9486 105.943 27.1832 105.538 27.3326C104.343 27.7379 103.831 27.1192 104.919 26.5646C105.687 26.1592 106.178 26.2232 106.178 26.6926ZM99.2231 26.9272C99.9484 27.1832 99.9271 27.5246 99.2018 27.6952C98.8604 27.7592 98.0924 28.1006 97.4951 28.4419C96.1724 29.1672 96.1511 29.1672 96.1511 28.6766C96.1511 28.1006 96.7698 27.3326 97.5164 27.0126C98.3271 26.6712 98.5404 26.6499 99.2231 26.9272ZM100.204 28.4206C100.482 28.6126 100.46 28.6766 100.119 28.9539C99.4791 29.4446 97.4098 30.1699 97.0471 30.0206C96.7911 29.9352 96.8551 29.7646 97.3458 29.2526C98.1778 28.3992 99.5431 27.9939 100.204 28.4206ZM113.836 70.1486C115.394 72.1326 117.292 78.2126 118.316 84.5272C118.935 88.3886 119.17 91.3539 119.404 97.9672C119.511 101.573 119.767 105.263 120.044 107.525C120.62 112.047 120.535 112.41 119.212 111.301C118.359 110.575 117.548 108.869 117.164 106.991C116.994 106.159 116.567 102.042 116.204 97.8392C115.543 89.9246 115.052 85.9992 114.178 81.1992C113.324 76.6339 112.578 71.8979 112.578 71.1299C112.578 70.3619 112.898 69.5939 113.218 69.5939C113.324 69.5939 113.602 69.8499 113.836 70.1486ZM77.5698 104.794C78.5938 105.071 79.3404 105.861 80.8978 108.229C82.4551 110.575 84.6524 112.751 86.2098 113.455C88.5138 114.501 92.9084 115.247 96.8551 115.247C100.162 115.247 100.396 115.439 99.5431 117.701C98.5404 120.367 95.5111 122.522 91.6924 123.269C89.1111 123.781 84.2898 123.589 81.2178 122.863C74.6898 121.306 69.7617 118.831 68.0338 116.186C66.6898 114.181 66.6258 112.538 67.7564 110.255C69.4844 106.735 74.5404 103.919 77.5698 104.794Z"></path>
  </mask>
  <path d="M117.612 0.92189C116.503 1.17789 115.372 2.05256 115.01 2.94855C114.348 4.52722 114.69 6.83122 116.716 14.6606C118.508 21.5299 118.956 25.7326 118.978 35.6739C118.978 43.1832 119.34 45.4232 121.154 49.0926C123.031 52.8899 125.548 54.7886 130.391 56.0472C131.543 56.3459 132.631 56.6872 132.844 56.7939C133.378 57.0712 133.506 58.4579 133.271 61.4019C132.652 68.7619 131.116 74.1379 126.914 83.5672C124.204 89.6686 123.479 92.5272 122.498 100.847C121.623 108.399 121.388 109.701 121.047 109.103C120.727 108.634 120.471 105.605 120.151 99.0339C119.596 87.3432 119.02 82.9486 117.143 76.5912C115.244 70.0846 113.708 67.8232 112.364 69.5299C111.938 70.0632 111.895 70.2766 112.023 71.8126C112.108 72.7512 112.599 75.8659 113.132 78.7459C114.732 87.4499 115.138 90.6286 115.564 97.8606C115.991 105.199 116.695 108.805 118.103 111.023C118.828 112.175 119.447 112.559 120.172 112.389C120.812 112.218 120.727 112.026 122.263 117.167C124.162 123.525 124.162 123.567 123.692 124.207C122.86 125.359 119.127 126.106 116.29 125.701C113.324 125.295 111.511 124.122 111.511 122.629C111.511 120.922 113.154 120.09 117.847 119.429C119.639 119.194 121.111 118.938 121.111 118.874C121.111 118.81 120.578 118.554 119.938 118.298C118.871 117.85 118.402 117.807 115.159 117.807C110.871 117.807 110.978 117.871 110.551 115.226C110.103 112.367 109.292 109.381 106.54 100.314C104.855 94.7672 104.108 91.5459 102.978 84.9539C101.847 78.4046 101.527 76.9112 101.164 76.7619C100.503 76.5272 100.354 77.2099 100.503 79.7912C100.887 86.0419 101.826 91.1406 104.684 102.405C107.052 111.706 107.159 113.029 105.559 113.861C105.218 114.031 104.279 114.266 103.468 114.415C101.634 114.714 101.015 114.501 100.439 113.37C99.8631 112.218 98.7964 111.215 97.6444 110.682C96.2791 110.063 93.2284 110.085 91.0098 110.725C88.0444 111.578 86.9138 111.301 84.8018 109.125C82.0924 106.309 79.9378 101.53 79.9378 98.2659V96.9859L81.7511 97.0712L83.5858 97.1779L84.3751 96.3246C85.3351 95.3219 86.1884 93.2526 88.6418 86.0206C92.7591 73.9246 94.5084 70.6606 101.271 62.3406C104.087 58.8846 105.367 55.7059 105.388 52.1006C105.41 48.3459 104.13 45.8499 99.6711 40.9219C95.3618 36.1646 94.8924 35.4606 94.8711 33.8606C94.8711 32.1752 96.2578 30.5539 97.7511 30.5539C98.7751 30.5539 100.61 29.5299 101.1 28.6979C101.335 28.3139 101.762 27.9299 102.039 27.8659C102.551 27.7379 104.108 27.8446 105.474 28.1219C106.092 28.2286 106.199 28.1646 106.583 27.5459C107.18 26.5646 107.138 26.1166 106.391 25.6899C106.05 25.4979 105.794 25.2206 105.836 25.1139C105.922 24.8152 106.626 24.9646 107.116 25.3912C107.735 25.9672 110.295 25.8606 111.447 25.2419C112.364 24.7512 112.364 24.7512 114.37 25.0926C116.503 25.4552 117.314 25.3486 117.847 24.6446C118.21 24.1752 117.911 23.7059 116.204 22.0206C115.095 20.9326 114.54 20.1219 113.538 18.1806C111.98 15.1726 110.487 13.4872 109.399 13.4872C108.46 13.4872 107.522 14.4686 106.839 16.1752C106.114 17.9886 105.751 18.2872 103.767 18.8206C98.4551 20.2286 95.0631 21.8712 92.9511 24.0259L91.7778 25.2206L89.5804 24.3459C88.2364 23.8339 86.8711 23.4499 86.0391 23.3646C84.7164 23.2366 84.6311 23.2792 84.0338 23.8766C82.5618 25.3272 83.0524 29.4019 85.0578 32.3459C86.0391 33.7966 85.9751 33.4126 85.9964 37.2739L86.0178 40.2606L86.7644 41.6472C87.3191 42.6712 88.4924 44.0366 91.2658 46.8739C95.4471 51.1832 95.9804 51.9939 95.9591 53.9566C95.9591 55.8766 95.4471 57.0712 92.3964 62.2979C89.2391 67.6526 87.7884 70.7672 84.3751 79.5139C81.5591 86.6819 80.2578 90.3939 79.6178 92.9966C79.2978 94.2552 78.9564 95.3859 78.8711 95.4712C78.7858 95.5779 75.4151 94.0632 71.3831 92.0792C59.4364 86.2766 56.4498 84.9539 51.9911 83.5032C47.5751 82.0739 44.2684 81.5406 39.8097 81.5406C30.7218 81.5406 21.4417 84.0579 12.2471 89.0499C6.18841 92.3139 0.0657477 96.2179 0.961748 96.2606C1.11108 96.2606 2.83908 95.2792 4.80175 94.0632C15.7457 87.3006 23.3831 84.1646 32.4711 82.6712C35.7778 82.1379 43.3298 82.1592 46.3377 82.6926C50.3271 83.4179 54.4018 84.8472 61.0578 87.8552C65.7511 89.9672 77.6551 95.9406 78.3591 96.5379C78.9351 97.0286 79.0418 97.2846 79.1698 98.5432C79.5751 102.426 82.0924 107.482 84.9084 110.063C87.0844 112.026 88.1724 112.261 91.3298 111.322C93.8684 110.575 95.7671 110.575 97.3244 111.301C98.7751 111.983 99.9911 113.306 99.9911 114.181C99.9911 114.821 99.9698 114.821 98.8604 114.821C97.1538 114.821 90.9031 114.202 89.3031 113.861C86.2524 113.242 83.8844 111.471 81.6444 108.143C79.3191 104.73 78.5938 104.154 76.5884 104.154C72.8124 104.154 68.6524 106.714 67.0098 110.042C66.4764 111.13 66.3911 111.535 66.3911 113.157C66.3911 114.949 66.4124 115.013 67.2444 116.25C69.3138 119.258 74.4977 121.946 81.1324 123.482C84.5031 124.25 89.4311 124.442 92.1191 123.887C95.3191 123.247 97.6871 121.733 99.3298 119.301C99.7991 118.597 100.332 117.509 100.503 116.869C100.695 116.25 100.951 115.631 101.1 115.525C101.25 115.397 101.975 115.247 102.679 115.183C104.087 115.034 106.05 114.373 106.668 113.818C106.86 113.626 107.138 113.114 107.266 112.687C107.586 111.663 107.244 109.957 105.111 101.509C102.572 91.3966 101.25 84.5059 101.292 81.4126C101.314 79.3006 101.527 80.0899 102.551 86.1059C103.596 92.3352 104.236 95.0232 106.071 100.954C107.671 106.181 109.079 111.258 109.911 114.821C110.231 116.165 110.615 117.594 110.786 117.999L111.084 118.725L112.642 118.575C116.418 118.234 117.442 118.191 117.826 118.405C118.124 118.575 117.975 118.661 116.93 118.874C112.45 119.77 111.682 120.111 110.999 121.519C110.658 122.223 110.636 122.437 110.871 123.205C111.255 124.506 112.45 125.594 113.794 125.871C116.866 126.533 121.324 126.362 122.988 125.509C124.93 124.527 124.994 123.887 123.564 119.599C122.22 115.546 121.474 112.389 121.602 111.322C121.666 110.831 121.9 109.381 122.135 108.101C122.391 106.799 122.818 103.514 123.138 100.805C124.012 92.8046 124.652 90.3512 127.639 83.5459C132.14 73.2846 133.911 66.2446 133.911 58.6499V56.5806H137.175C140.29 56.5806 143.81 56.3459 152.151 55.6419C163.65 54.6392 174.828 54.6392 180.204 55.6419C186.092 56.7085 192.087 58.7139 200.364 62.4046C203.82 63.9192 206.7 65.1139 206.978 65.1139C207.383 65.1139 206.914 64.6872 206.082 64.2819C197.058 59.8232 187.607 56.4312 180.844 55.2152C174.188 54.0206 164.78 53.9779 151.938 55.0872C145.303 55.6632 138.178 56.1539 136.407 56.1539C134.658 56.1539 133.783 55.7699 133.612 54.9379C133.548 54.5965 133.399 51.8446 133.271 48.7939C132.674 33.5832 132.439 30.4686 131.65 26.2872C129.602 15.4499 125.826 5.52989 122.455 2.24456C120.94 0.751228 119.724 0.431229 117.612 0.92189ZM120.578 1.66856C121.26 1.98856 122.092 2.60722 122.583 3.18323C124.887 5.89256 127.383 11.6952 129.431 19.2259C131.308 26.0739 131.82 30.1486 132.311 42.0739C132.631 49.9246 132.994 55.4499 133.207 55.8126C133.506 56.2819 129.346 55.2579 127.575 54.4259C124.738 53.0819 122.946 51.2899 121.474 48.3459C119.852 45.1032 119.66 43.6312 119.404 32.4739C119.276 26.2446 119.106 22.9592 118.871 21.3806C118.679 20.1646 117.762 16.1539 116.823 12.4846C115.906 8.81522 115.138 5.40189 115.138 4.91122C115.138 3.63123 115.863 2.64989 117.42 1.79656C118.103 1.43389 118.828 1.11389 119.042 1.11389C119.255 1.11389 119.959 1.36989 120.578 1.66856ZM110.679 14.9166C111.234 15.4499 112.044 16.7512 113.068 18.6926C114.455 21.4019 114.711 21.7646 115.884 22.6606C116.652 23.2579 117.164 23.8126 117.164 24.0686C117.164 24.4099 116.972 24.4739 115.842 24.5379C113.815 24.6446 113.09 24.3672 110.871 22.7459C110.231 22.2766 109.954 22.2126 109.015 22.2766C108.055 22.3619 107.756 22.5112 106.882 23.3219C106.327 23.8552 105.218 24.5806 104.428 24.9859C103.255 25.5619 102.956 25.8179 102.764 26.3939C102.636 26.7992 102.359 27.1832 102.146 27.2472C101.719 27.3752 100.738 27.0766 100.546 26.7352C100.311 26.3939 98.7964 26.2446 97.8364 26.5006C96.5991 26.8419 95.1911 28.2286 95.4044 28.8899C95.7884 30.1699 95.7671 30.3406 95.1271 31.0659C94.7004 31.5566 94.4231 32.1539 94.3164 32.7939C93.9964 35.0552 94.4871 36.0792 97.6871 39.7059C101.548 44.0366 102.807 45.6579 103.575 47.1726L104.364 48.7726V52.3992V56.0472L103.596 57.6472C102.807 59.2899 101.57 61.0392 98.4978 64.7939C93.8044 70.5539 91.8844 74.4579 87.6391 86.9379C86.4444 90.4366 85.2498 93.8072 84.9724 94.4259C84.2684 96.0259 83.6071 96.4739 81.9858 96.4739C81.2178 96.4739 80.4924 96.3459 80.2578 96.1966C79.3191 95.4926 80.3857 91.5459 84.0978 81.9672C87.8951 72.2179 89.9218 67.7806 93.1004 62.4046C96.2791 57.0072 96.4284 56.6872 96.5351 54.9592C96.6418 53.1245 96.2578 51.6952 95.2338 50.2019C94.8711 49.6686 93.1218 47.7699 91.3511 46.0206C87.0204 41.7326 86.5724 40.7726 86.5511 35.6526C86.5511 33.6472 86.5298 33.6046 85.6978 32.2392C84.1404 29.7859 84.0978 29.6152 84.0978 26.9699C84.0978 24.2179 84.2471 23.9406 85.7191 23.9406C86.5724 23.9406 90.0924 25.1139 90.3058 25.4766C90.5618 25.9032 90.1778 25.8819 88.8551 25.4552C85.8684 24.4739 84.9724 24.6232 84.7804 26.1166C84.3111 29.5299 87.2551 34.0312 89.4098 33.1992C90.1991 32.9006 92.3111 28.3992 92.3111 26.9699C92.3324 24.1539 96.4711 21.4446 103.554 19.5672C106.583 18.7566 106.434 18.8846 107.33 16.7086C108.482 13.9352 109.207 13.5512 110.679 14.9166ZM110.338 23.0659C110.53 23.3859 110.082 23.5566 108.716 23.6632C107.436 23.7912 107.052 23.5566 107.842 23.1086C108.311 22.8312 110.167 22.8099 110.338 23.0659ZM110.871 24.5806C111.34 24.8792 110.594 25.0926 109.122 25.1139C107.842 25.1139 107.372 24.9006 107.884 24.5806C108.29 24.3246 110.466 24.3246 110.871 24.5806ZM88.0444 25.8606C89.0898 26.2232 90.3058 26.5006 90.9031 26.5006H91.9484L91.7991 27.1832C91.7351 27.5672 91.1164 28.9966 90.4551 30.3406C89.5164 32.1966 89.1111 32.8152 88.7698 32.8579C87.2764 33.0712 84.5671 27.6099 85.2498 25.7966C85.5271 25.0712 85.8258 25.0712 88.0444 25.8606ZM106.178 26.6926C106.178 26.9486 105.943 27.1832 105.538 27.3326C104.343 27.7379 103.831 27.1192 104.919 26.5646C105.687 26.1592 106.178 26.2232 106.178 26.6926ZM99.2231 26.9272C99.9484 27.1832 99.9271 27.5246 99.2018 27.6952C98.8604 27.7592 98.0924 28.1006 97.4951 28.4419C96.1724 29.1672 96.1511 29.1672 96.1511 28.6766C96.1511 28.1006 96.7698 27.3326 97.5164 27.0126C98.3271 26.6712 98.5404 26.6499 99.2231 26.9272ZM100.204 28.4206C100.482 28.6126 100.46 28.6766 100.119 28.9539C99.4791 29.4446 97.4098 30.1699 97.0471 30.0206C96.7911 29.9352 96.8551 29.7646 97.3458 29.2526C98.1778 28.3992 99.5431 27.9939 100.204 28.4206ZM113.836 70.1486C115.394 72.1326 117.292 78.2126 118.316 84.5272C118.935 88.3886 119.17 91.3539 119.404 97.9672C119.511 101.573 119.767 105.263 120.044 107.525C120.62 112.047 120.535 112.41 119.212 111.301C118.359 110.575 117.548 108.869 117.164 106.991C116.994 106.159 116.567 102.042 116.204 97.8392C115.543 89.9246 115.052 85.9992 114.178 81.1992C113.324 76.6339 112.578 71.8979 112.578 71.1299C112.578 70.3619 112.898 69.5939 113.218 69.5939C113.324 69.5939 113.602 69.8499 113.836 70.1486ZM77.5698 104.794C78.5938 105.071 79.3404 105.861 80.8978 108.229C82.4551 110.575 84.6524 112.751 86.2098 113.455C88.5138 114.501 92.9084 115.247 96.8551 115.247C100.162 115.247 100.396 115.439 99.5431 117.701C98.5404 120.367 95.5111 122.522 91.6924 123.269C89.1111 123.781 84.2898 123.589 81.2178 122.863C74.6898 121.306 69.7617 118.831 68.0338 116.186C66.6898 114.181 66.6258 112.538 67.7564 110.255C69.4844 106.735 74.5404 103.919 77.5698 104.794Z" fill="#0D2554"></path>
  <path d="M117.612 0.92189C116.503 1.17789 115.372 2.05256 115.01 2.94855C114.348 4.52722 114.69 6.83122 116.716 14.6606C118.508 21.5299 118.956 25.7326 118.978 35.6739C118.978 43.1832 119.34 45.4232 121.154 49.0926C123.031 52.8899 125.548 54.7886 130.391 56.0472C131.543 56.3459 132.631 56.6872 132.844 56.7939C133.378 57.0712 133.506 58.4579 133.271 61.4019C132.652 68.7619 131.116 74.1379 126.914 83.5672C124.204 89.6686 123.479 92.5272 122.498 100.847C121.623 108.399 121.388 109.701 121.047 109.103C120.727 108.634 120.471 105.605 120.151 99.0339C119.596 87.3432 119.02 82.9486 117.143 76.5912C115.244 70.0846 113.708 67.8232 112.364 69.5299C111.938 70.0632 111.895 70.2766 112.023 71.8126C112.108 72.7512 112.599 75.8659 113.132 78.7459C114.732 87.4499 115.138 90.6286 115.564 97.8606C115.991 105.199 116.695 108.805 118.103 111.023C118.828 112.175 119.447 112.559 120.172 112.389C120.812 112.218 120.727 112.026 122.263 117.167C124.162 123.525 124.162 123.567 123.692 124.207C122.86 125.359 119.127 126.106 116.29 125.701C113.324 125.295 111.511 124.122 111.511 122.629C111.511 120.922 113.154 120.09 117.847 119.429C119.639 119.194 121.111 118.938 121.111 118.874C121.111 118.81 120.578 118.554 119.938 118.298C118.871 117.85 118.402 117.807 115.159 117.807C110.871 117.807 110.978 117.871 110.551 115.226C110.103 112.367 109.292 109.381 106.54 100.314C104.855 94.7672 104.108 91.5459 102.978 84.9539C101.847 78.4046 101.527 76.9112 101.164 76.7619C100.503 76.5272 100.354 77.2099 100.503 79.7912C100.887 86.0419 101.826 91.1406 104.684 102.405C107.052 111.706 107.159 113.029 105.559 113.861C105.218 114.031 104.279 114.266 103.468 114.415C101.634 114.714 101.015 114.501 100.439 113.37C99.8631 112.218 98.7964 111.215 97.6444 110.682C96.2791 110.063 93.2284 110.085 91.0098 110.725C88.0444 111.578 86.9138 111.301 84.8018 109.125C82.0924 106.309 79.9378 101.53 79.9378 98.2659V96.9859L81.7511 97.0712L83.5858 97.1779L84.3751 96.3246C85.3351 95.3219 86.1884 93.2526 88.6418 86.0206C92.7591 73.9246 94.5084 70.6606 101.271 62.3406C104.087 58.8846 105.367 55.7059 105.388 52.1006C105.41 48.3459 104.13 45.8499 99.6711 40.9219C95.3618 36.1646 94.8924 35.4606 94.8711 33.8606C94.8711 32.1752 96.2578 30.5539 97.7511 30.5539C98.7751 30.5539 100.61 29.5299 101.1 28.6979C101.335 28.3139 101.762 27.9299 102.039 27.8659C102.551 27.7379 104.108 27.8446 105.474 28.1219C106.092 28.2286 106.199 28.1646 106.583 27.5459C107.18 26.5646 107.138 26.1166 106.391 25.6899C106.05 25.4979 105.794 25.2206 105.836 25.1139C105.922 24.8152 106.626 24.9646 107.116 25.3912C107.735 25.9672 110.295 25.8606 111.447 25.2419C112.364 24.7512 112.364 24.7512 114.37 25.0926C116.503 25.4552 117.314 25.3486 117.847 24.6446C118.21 24.1752 117.911 23.7059 116.204 22.0206C115.095 20.9326 114.54 20.1219 113.538 18.1806C111.98 15.1726 110.487 13.4872 109.399 13.4872C108.46 13.4872 107.522 14.4686 106.839 16.1752C106.114 17.9886 105.751 18.2872 103.767 18.8206C98.4551 20.2286 95.0631 21.8712 92.9511 24.0259L91.7778 25.2206L89.5804 24.3459C88.2364 23.8339 86.8711 23.4499 86.0391 23.3646C84.7164 23.2366 84.6311 23.2792 84.0338 23.8766C82.5618 25.3272 83.0524 29.4019 85.0578 32.3459C86.0391 33.7966 85.9751 33.4126 85.9964 37.2739L86.0178 40.2606L86.7644 41.6472C87.3191 42.6712 88.4924 44.0366 91.2658 46.8739C95.4471 51.1832 95.9804 51.9939 95.9591 53.9566C95.9591 55.8766 95.4471 57.0712 92.3964 62.2979C89.2391 67.6526 87.7884 70.7672 84.3751 79.5139C81.5591 86.6819 80.2578 90.3939 79.6178 92.9966C79.2978 94.2552 78.9564 95.3859 78.8711 95.4712C78.7858 95.5779 75.4151 94.0632 71.3831 92.0792C59.4364 86.2766 56.4498 84.9539 51.9911 83.5032C47.5751 82.0739 44.2684 81.5406 39.8097 81.5406C30.7218 81.5406 21.4417 84.0579 12.2471 89.0499C6.18841 92.3139 0.0657477 96.2179 0.961748 96.2606C1.11108 96.2606 2.83908 95.2792 4.80175 94.0632C15.7457 87.3006 23.3831 84.1646 32.4711 82.6712C35.7778 82.1379 43.3298 82.1592 46.3377 82.6926C50.3271 83.4179 54.4018 84.8472 61.0578 87.8552C65.7511 89.9672 77.6551 95.9406 78.3591 96.5379C78.9351 97.0286 79.0418 97.2846 79.1698 98.5432C79.5751 102.426 82.0924 107.482 84.9084 110.063C87.0844 112.026 88.1724 112.261 91.3298 111.322C93.8684 110.575 95.7671 110.575 97.3244 111.301C98.7751 111.983 99.9911 113.306 99.9911 114.181C99.9911 114.821 99.9698 114.821 98.8604 114.821C97.1538 114.821 90.9031 114.202 89.3031 113.861C86.2524 113.242 83.8844 111.471 81.6444 108.143C79.3191 104.73 78.5938 104.154 76.5884 104.154C72.8124 104.154 68.6524 106.714 67.0098 110.042C66.4764 111.13 66.3911 111.535 66.3911 113.157C66.3911 114.949 66.4124 115.013 67.2444 116.25C69.3138 119.258 74.4977 121.946 81.1324 123.482C84.5031 124.25 89.4311 124.442 92.1191 123.887C95.3191 123.247 97.6871 121.733 99.3298 119.301C99.7991 118.597 100.332 117.509 100.503 116.869C100.695 116.25 100.951 115.631 101.1 115.525C101.25 115.397 101.975 115.247 102.679 115.183C104.087 115.034 106.05 114.373 106.668 113.818C106.86 113.626 107.138 113.114 107.266 112.687C107.586 111.663 107.244 109.957 105.111 101.509C102.572 91.3966 101.25 84.5059 101.292 81.4126C101.314 79.3006 101.527 80.0899 102.551 86.1059C103.596 92.3352 104.236 95.0232 106.071 100.954C107.671 106.181 109.079 111.258 109.911 114.821C110.231 116.165 110.615 117.594 110.786 117.999L111.084 118.725L112.642 118.575C116.418 118.234 117.442 118.191 117.826 118.405C118.124 118.575 117.975 118.661 116.93 118.874C112.45 119.77 111.682 120.111 110.999 121.519C110.658 122.223 110.636 122.437 110.871 123.205C111.255 124.506 112.45 125.594 113.794 125.871C116.866 126.533 121.324 126.362 122.988 125.509C124.93 124.527 124.994 123.887 123.564 119.599C122.22 115.546 121.474 112.389 121.602 111.322C121.666 110.831 121.9 109.381 122.135 108.101C122.391 106.799 122.818 103.514 123.138 100.805C124.012 92.8046 124.652 90.3512 127.639 83.5459C132.14 73.2846 133.911 66.2446 133.911 58.6499V56.5806H137.175C140.29 56.5806 143.81 56.3459 152.151 55.6419C163.65 54.6392 174.828 54.6392 180.204 55.6419C186.092 56.7085 192.087 58.7139 200.364 62.4046C203.82 63.9192 206.7 65.1139 206.978 65.1139C207.383 65.1139 206.914 64.6872 206.082 64.2819C197.058 59.8232 187.607 56.4312 180.844 55.2152C174.188 54.0206 164.78 53.9779 151.938 55.0872C145.303 55.6632 138.178 56.1539 136.407 56.1539C134.658 56.1539 133.783 55.7699 133.612 54.9379C133.548 54.5965 133.399 51.8446 133.271 48.7939C132.674 33.5832 132.439 30.4686 131.65 26.2872C129.602 15.4499 125.826 5.52989 122.455 2.24456C120.94 0.751228 119.724 0.431229 117.612 0.92189ZM120.578 1.66856C121.26 1.98856 122.092 2.60722 122.583 3.18323C124.887 5.89256 127.383 11.6952 129.431 19.2259C131.308 26.0739 131.82 30.1486 132.311 42.0739C132.631 49.9246 132.994 55.4499 133.207 55.8126C133.506 56.2819 129.346 55.2579 127.575 54.4259C124.738 53.0819 122.946 51.2899 121.474 48.3459C119.852 45.1032 119.66 43.6312 119.404 32.4739C119.276 26.2446 119.106 22.9592 118.871 21.3806C118.679 20.1646 117.762 16.1539 116.823 12.4846C115.906 8.81522 115.138 5.40189 115.138 4.91122C115.138 3.63123 115.863 2.64989 117.42 1.79656C118.103 1.43389 118.828 1.11389 119.042 1.11389C119.255 1.11389 119.959 1.36989 120.578 1.66856ZM110.679 14.9166C111.234 15.4499 112.044 16.7512 113.068 18.6926C114.455 21.4019 114.711 21.7646 115.884 22.6606C116.652 23.2579 117.164 23.8126 117.164 24.0686C117.164 24.4099 116.972 24.4739 115.842 24.5379C113.815 24.6446 113.09 24.3672 110.871 22.7459C110.231 22.2766 109.954 22.2126 109.015 22.2766C108.055 22.3619 107.756 22.5112 106.882 23.3219C106.327 23.8552 105.218 24.5806 104.428 24.9859C103.255 25.5619 102.956 25.8179 102.764 26.3939C102.636 26.7992 102.359 27.1832 102.146 27.2472C101.719 27.3752 100.738 27.0766 100.546 26.7352C100.311 26.3939 98.7964 26.2446 97.8364 26.5006C96.5991 26.8419 95.1911 28.2286 95.4044 28.8899C95.7884 30.1699 95.7671 30.3406 95.1271 31.0659C94.7004 31.5566 94.4231 32.1539 94.3164 32.7939C93.9964 35.0552 94.4871 36.0792 97.6871 39.7059C101.548 44.0366 102.807 45.6579 103.575 47.1726L104.364 48.7726V52.3992V56.0472L103.596 57.6472C102.807 59.2899 101.57 61.0392 98.4978 64.7939C93.8044 70.5539 91.8844 74.4579 87.6391 86.9379C86.4444 90.4366 85.2498 93.8072 84.9724 94.4259C84.2684 96.0259 83.6071 96.4739 81.9858 96.4739C81.2178 96.4739 80.4924 96.3459 80.2578 96.1966C79.3191 95.4926 80.3857 91.5459 84.0978 81.9672C87.8951 72.2179 89.9218 67.7806 93.1004 62.4046C96.2791 57.0072 96.4284 56.6872 96.5351 54.9592C96.6418 53.1245 96.2578 51.6952 95.2338 50.2019C94.8711 49.6686 93.1218 47.7699 91.3511 46.0206C87.0204 41.7326 86.5724 40.7726 86.5511 35.6526C86.5511 33.6472 86.5298 33.6046 85.6978 32.2392C84.1404 29.7859 84.0978 29.6152 84.0978 26.9699C84.0978 24.2179 84.2471 23.9406 85.7191 23.9406C86.5724 23.9406 90.0924 25.1139 90.3058 25.4766C90.5618 25.9032 90.1778 25.8819 88.8551 25.4552C85.8684 24.4739 84.9724 24.6232 84.7804 26.1166C84.3111 29.5299 87.2551 34.0312 89.4098 33.1992C90.1991 32.9006 92.3111 28.3992 92.3111 26.9699C92.3324 24.1539 96.4711 21.4446 103.554 19.5672C106.583 18.7566 106.434 18.8846 107.33 16.7086C108.482 13.9352 109.207 13.5512 110.679 14.9166ZM110.338 23.0659C110.53 23.3859 110.082 23.5566 108.716 23.6632C107.436 23.7912 107.052 23.5566 107.842 23.1086C108.311 22.8312 110.167 22.8099 110.338 23.0659ZM110.871 24.5806C111.34 24.8792 110.594 25.0926 109.122 25.1139C107.842 25.1139 107.372 24.9006 107.884 24.5806C108.29 24.3246 110.466 24.3246 110.871 24.5806ZM88.0444 25.8606C89.0898 26.2232 90.3058 26.5006 90.9031 26.5006H91.9484L91.7991 27.1832C91.7351 27.5672 91.1164 28.9966 90.4551 30.3406C89.5164 32.1966 89.1111 32.8152 88.7698 32.8579C87.2764 33.0712 84.5671 27.6099 85.2498 25.7966C85.5271 25.0712 85.8258 25.0712 88.0444 25.8606ZM106.178 26.6926C106.178 26.9486 105.943 27.1832 105.538 27.3326C104.343 27.7379 103.831 27.1192 104.919 26.5646C105.687 26.1592 106.178 26.2232 106.178 26.6926ZM99.2231 26.9272C99.9484 27.1832 99.9271 27.5246 99.2018 27.6952C98.8604 27.7592 98.0924 28.1006 97.4951 28.4419C96.1724 29.1672 96.1511 29.1672 96.1511 28.6766C96.1511 28.1006 96.7698 27.3326 97.5164 27.0126C98.3271 26.6712 98.5404 26.6499 99.2231 26.9272ZM100.204 28.4206C100.482 28.6126 100.46 28.6766 100.119 28.9539C99.4791 29.4446 97.4098 30.1699 97.0471 30.0206C96.7911 29.9352 96.8551 29.7646 97.3458 29.2526C98.1778 28.3992 99.5431 27.9939 100.204 28.4206ZM113.836 70.1486C115.394 72.1326 117.292 78.2126 118.316 84.5272C118.935 88.3886 119.17 91.3539 119.404 97.9672C119.511 101.573 119.767 105.263 120.044 107.525C120.62 112.047 120.535 112.41 119.212 111.301C118.359 110.575 117.548 108.869 117.164 106.991C116.994 106.159 116.567 102.042 116.204 97.8392C115.543 89.9246 115.052 85.9992 114.178 81.1992C113.324 76.6339 112.578 71.8979 112.578 71.1299C112.578 70.3619 112.898 69.5939 113.218 69.5939C113.324 69.5939 113.602 69.8499 113.836 70.1486ZM77.5698 104.794C78.5938 105.071 79.3404 105.861 80.8978 108.229C82.4551 110.575 84.6524 112.751 86.2098 113.455C88.5138 114.501 92.9084 115.247 96.8551 115.247C100.162 115.247 100.396 115.439 99.5431 117.701C98.5404 120.367 95.5111 122.522 91.6924 123.269C89.1111 123.781 84.2898 123.589 81.2178 122.863C74.6898 121.306 69.7617 118.831 68.0338 116.186C66.6898 114.181 66.6258 112.538 67.7564 110.255C69.4844 106.735 74.5404 103.919 77.5698 104.794Z" stroke="#0D2554" mask="url(#path-1-outside-1_2989_502)"></path>
</svg>
