<?xml version="1.0" encoding="UTF-8"?>
<svg xmlns="http://www.w3.org/2000/svg" width="221" height="220" viewBox="0 0 221 220" fill="none">
  <g clip-path="url(#clip0_2481_17780)">
    <path fill-rule="evenodd" clip-rule="evenodd" d="M89.3535 2.95585C89.1641 2.98224 89.0092 3.0437 89.0092 3.09254C89.0092 3.14139 88.7112 3.21292 88.3469 3.25149C87.9827 3.29006 87.3747 3.40747 86.9958 3.51248C86.617 3.61749 86.1163 3.75376 85.8832 3.81543C85.174 4.00299 84.4086 4.28665 84.2408 4.4243C84.1533 4.49604 83.9626 4.58982 83.8169 4.63274C83.6712 4.67565 83.4805 4.77218 83.3931 4.84731C83.3056 4.92244 83.037 5.03635 82.7961 5.10046C82.5552 5.16457 82.299 5.28823 82.2268 5.37523C82.1546 5.46222 82.0532 5.53343 82.0016 5.53343C81.9192 5.53343 80.712 6.31068 79.7499 6.98302C79.4182 7.21487 77.9123 8.71236 78.0108 8.71236C78.0397 8.71236 77.8065 8.98649 77.4926 9.32165C76.6863 10.1824 75.7424 11.6259 75.0122 13.1156C74.6679 13.818 74.3861 14.4434 74.3861 14.5053C74.3861 14.5672 74.3012 14.7314 74.1974 14.8705C73.9599 15.1885 73.5775 16.1668 73.4919 16.6756C73.456 16.8882 73.3603 17.1174 73.279 17.1849C73.1976 17.2524 73.0982 17.5023 73.058 17.7402C73.0178 17.9782 72.8959 18.3688 72.7871 18.6084C72.6784 18.8478 72.5872 19.1631 72.5847 19.3088C72.5822 19.4545 72.4876 19.7774 72.3746 20.0264C72.2616 20.2753 72.158 20.6686 72.1443 20.9006C72.1306 21.1324 72.0883 21.3221 72.0502 21.3221C71.9619 21.3221 71.631 22.3399 71.631 22.6114C71.631 22.7242 71.5414 22.9929 71.4319 23.2085C71.1704 23.723 70.8986 24.5314 70.7656 25.1898C70.7067 25.4812 70.6176 25.7692 70.5675 25.8299C70.5172 25.8905 70.4246 26.1708 70.3615 26.4526C70.2983 26.7344 70.1528 27.1709 70.0381 27.4226C69.9234 27.6743 69.8296 27.9771 69.8296 28.0954C69.8296 28.2138 69.7345 28.4667 69.6181 28.6576C69.5018 28.8484 69.4062 29.0999 69.4058 29.2164C69.4053 29.333 69.3101 29.5841 69.1939 29.7744C69.0779 29.9648 68.9904 30.1555 68.9993 30.1983C69.0372 30.3796 68.408 31.6966 67.9507 32.3929C67.7603 32.6831 67.6044 32.9788 67.6044 33.0501C67.6044 33.35 66.0429 35.4179 65.1782 36.2631C64.5279 36.8986 63.1948 37.9314 62.9074 38.0221C62.7807 38.062 62.6055 38.1714 62.5181 38.265C62.4307 38.3587 62.2876 38.4508 62.2002 38.4698C62.1128 38.4887 61.9428 38.596 61.8225 38.7082C61.7022 38.8204 61.5456 38.9122 61.4744 38.9122C61.4033 38.9122 61.2305 38.9872 61.0904 39.0789C60.9505 39.1707 60.6065 39.3109 60.326 39.3906C60.0455 39.4704 59.3392 39.7048 58.7564 39.9117C58.1736 40.1186 57.5298 40.2903 57.3259 40.2934C57.1219 40.2965 56.7642 40.3702 56.5311 40.4573C56.298 40.5443 55.6304 40.6628 55.0476 40.7206C54.4648 40.7783 53.5827 40.9032 53.0873 40.9983C51.8041 41.2443 43.0649 41.2338 41.1663 40.9839C38.242 40.5989 28.8821 40.5314 27.6037 40.8861C27.3119 40.967 26.787 41.0828 26.4373 41.1435C25.4639 41.3119 24.4254 41.7633 22.3791 42.9075C21.2085 43.562 19.1372 45.8646 18.6573 47.0449C18.5802 47.2344 18.4753 47.3893 18.4242 47.3893C18.3729 47.3893 18.331 47.4658 18.331 47.5594C18.331 47.6528 18.2105 47.9694 18.0632 48.2626C17.916 48.5558 17.7835 48.8726 17.7688 48.9667C17.754 49.0608 17.7049 49.1974 17.6594 49.2702C17.614 49.3431 17.6153 49.4041 17.6625 49.4058C17.7096 49.4076 17.6667 49.4566 17.567 49.5147C17.4674 49.5728 17.3578 49.7979 17.3236 50.0148C17.2894 50.2318 17.1715 50.6 17.0615 50.8331C16.7516 51.4898 16.5253 52.2409 16.3687 53.1321C16.2898 53.5807 16.1764 54.039 16.1167 54.1506C16.0569 54.2623 15.9779 54.7298 15.941 55.1895C15.9041 55.6492 15.8086 56.2547 15.7288 56.535C15.5847 57.0407 15.5238 57.6392 15.4191 59.5752C15.3891 60.1288 15.3172 60.9872 15.2591 61.4825C15.124 62.637 15.1263 68.2824 15.2625 69.3239C15.3196 69.761 15.4126 71.0962 15.4689 72.2909C15.5254 73.4856 15.6394 74.8208 15.7225 75.2579C15.8055 75.695 15.9062 76.7917 15.9463 77.6951C15.9863 78.5984 16.0854 79.7428 16.1666 80.2382C16.3813 81.5497 16.3745 86.3993 16.1568 87.2394C16.0683 87.5809 15.9974 87.9931 15.9992 88.1554C16.0048 88.6645 15.8259 89.5998 15.6443 90.01C15.5484 90.2267 15.47 90.4978 15.47 90.6123C15.47 90.8476 14.9708 92.0753 14.7763 92.3181C14.7063 92.4055 14.5916 92.656 14.5215 92.8745C14.4514 93.0931 14.3546 93.2718 14.3066 93.2718C14.2207 93.2718 13.7988 93.8974 13.651 94.244C13.6094 94.3416 13.4056 94.663 13.1981 94.9582C12.9906 95.2533 12.8209 95.5669 12.8209 95.6549C12.8209 95.7429 12.7703 95.815 12.7087 95.815C12.647 95.815 12.6259 95.8626 12.6619 95.9209C12.698 95.9792 12.6786 96.0269 12.6189 96.0269C12.5591 96.0269 12.2939 96.3584 12.0294 96.7636C11.7649 97.1689 11.3123 97.7842 11.0236 98.131C10.735 98.478 10.4677 98.8855 10.4298 99.0367C10.3918 99.188 10.3232 99.3118 10.2773 99.3118C10.2314 99.3118 10.1019 99.4906 9.98952 99.7091C9.65054 100.368 9.38065 100.845 9.31495 100.901C9.20199 100.998 8.25499 102.956 8.0047 103.61C7.8697 103.963 7.72676 104.535 7.68713 104.881C7.6476 105.228 7.56633 105.707 7.50667 105.948C7.44712 106.188 7.41946 106.713 7.44532 107.113C7.5036 108.017 7.8003 109.678 7.93243 109.84C7.98637 109.907 8.09074 110.164 8.16428 110.412C8.23782 110.659 8.33436 110.862 8.37897 110.862C8.42347 110.862 8.51153 111.018 8.57458 111.209C8.63762 111.4 8.83069 111.818 9.00362 112.136C9.17656 112.455 9.43405 112.931 9.57583 113.193C10.156 114.266 10.6245 114.861 12.556 116.976C13.8732 118.419 15.9453 120.186 17.255 120.982C17.3514 121.041 17.7317 121.291 18.1001 121.539C18.4685 121.786 18.7992 121.988 18.835 121.988C18.8708 121.988 18.9986 122.08 19.119 122.193C19.3325 122.393 21.1945 123.416 21.9338 123.74C22.1378 123.829 22.4312 123.972 22.5859 124.058C22.7406 124.143 22.9318 124.213 23.0106 124.213C23.0896 124.213 23.378 124.333 23.6517 124.478C23.9254 124.624 24.2074 124.743 24.2783 124.743C24.3493 124.743 24.4826 124.81 24.5745 124.891C24.7885 125.079 26.072 125.59 26.3396 125.593C26.4516 125.595 26.752 125.69 27.0073 125.806C27.2624 125.922 27.6677 126.044 27.908 126.078C28.1481 126.112 28.619 126.231 28.9544 126.342C29.2897 126.454 29.7323 126.545 29.9379 126.545C30.1436 126.545 30.482 126.616 30.6902 126.703C30.8983 126.79 31.5048 126.911 32.0378 126.973C32.5709 127.034 33.3647 127.166 33.8018 127.265C34.4822 127.419 35.2368 127.445 39.047 127.445C42.9275 127.445 43.5817 127.422 44.1548 127.263C44.5164 127.163 45.1363 127.052 45.5324 127.017C45.9286 126.982 46.5149 126.864 46.8354 126.754C47.1559 126.645 47.6215 126.531 47.8701 126.5C48.1186 126.469 48.413 126.396 48.5243 126.336C48.6355 126.277 48.9673 126.176 49.2617 126.113C49.5559 126.05 50.1914 125.831 50.6738 125.626C51.1562 125.421 51.6462 125.227 51.7627 125.194C51.8793 125.16 52.1095 125.022 52.2742 124.885C52.4389 124.749 52.6203 124.637 52.6771 124.637C52.8117 124.637 54.9226 123.419 55.4714 123.024C56.3727 122.376 59.1272 119.479 59.1272 119.178C59.1272 119.132 59.2465 118.938 59.3922 118.747C59.5379 118.556 59.6579 118.361 59.659 118.313C59.6607 118.236 60.1537 117.444 60.3725 117.167C60.4646 117.05 60.8721 116.217 61.2794 115.312C61.6823 114.418 62.2284 112.864 62.4524 111.975C62.5258 111.683 62.636 111.349 62.6974 111.233C62.7587 111.116 62.842 110.792 62.8826 110.513C62.9231 110.234 63.0474 109.805 63.1588 109.559C63.27 109.314 63.3622 109.008 63.3635 108.879C63.3648 108.75 63.4342 108.44 63.5178 108.19C63.6013 107.94 63.6981 107.521 63.733 107.259C63.7677 106.997 63.8251 106.568 63.8603 106.305C63.8956 106.043 63.9698 105.709 64.0252 105.564C64.0805 105.418 64.1714 104.822 64.2269 104.239C64.2824 103.656 64.394 102.917 64.4747 102.597C64.5556 102.276 64.6524 101.632 64.6902 101.166C64.7278 100.7 64.8505 99.8782 64.9629 99.3401C65.0752 98.8021 65.1671 98.1107 65.1669 97.8036C65.1667 97.4966 65.2588 96.9117 65.3714 96.5037C65.484 96.0958 65.6227 95.452 65.6796 95.0732C65.7366 94.6944 65.8533 94.1699 65.9391 93.9076C66.1187 93.3591 66.2906 92.7257 66.4858 91.8943C66.5611 91.5737 66.6934 91.1438 66.7799 90.9388C66.8663 90.7339 66.97 90.347 67.0101 90.0789C67.0504 89.8109 67.1513 89.5018 67.2345 89.3919C67.3176 89.2821 67.3873 89.1266 67.3891 89.0465C67.3926 88.8952 67.7482 88.0252 68.2175 87.0199C68.3671 86.6994 68.6387 86.2464 68.821 86.0133C69.0033 85.7801 69.2892 85.351 69.4563 85.0596C70.194 83.7733 71.2355 82.6153 72.6907 81.4635C73.3479 80.9434 74.8523 79.9203 74.9602 79.9203C75.0081 79.9203 75.3175 79.7123 76.3568 78.9813C76.5957 78.8132 76.9574 78.6209 77.1608 78.5538C77.3641 78.4867 77.6285 78.3404 77.7483 78.2287C77.8683 78.1171 77.9949 78.0544 78.0299 78.0894C78.065 78.1243 78.1773 78.0796 78.2796 77.9899C78.382 77.9002 78.9426 77.5784 79.5254 77.2748C80.1082 76.9712 80.6804 76.6393 80.7969 76.5373C80.9135 76.4353 81.1996 76.2421 81.4327 76.1079C81.8849 75.8477 82.2413 75.6259 83.199 75.0091C83.7588 74.6485 84.0288 74.5415 84.0288 74.68C84.0288 74.7118 83.9096 74.9617 83.7639 75.2354C83.6182 75.5091 83.499 75.7954 83.499 75.8716C83.499 75.9478 83.4296 76.1444 83.3447 76.3085C83.2599 76.4727 83.1662 76.7405 83.1366 76.9039C83.1069 77.0673 83.0388 77.2287 82.9851 77.2626C82.8276 77.3619 82.2366 78.4154 82.1615 78.7303C82.1237 78.8895 82.0344 79.1388 81.9631 79.2845C81.5404 80.1486 81.2793 80.7507 81.2162 81.0074C81.1767 81.1683 81.1033 81.3253 81.0529 81.3563C81.0027 81.3874 80.91 81.6134 80.8469 81.8586C80.7839 82.1038 80.6447 82.4953 80.5375 82.7284C80.0612 83.7645 79.8962 84.1755 79.8962 84.3262C79.8962 84.415 79.8016 84.6641 79.6859 84.8797C79.3068 85.5863 78.9427 86.4538 78.9389 86.6592C78.9369 86.7702 78.8433 87.0517 78.7306 87.2848C78.618 87.518 78.5243 87.8385 78.5223 87.9972C78.5203 88.156 78.4293 88.4898 78.3199 88.739C78.0931 89.2558 77.8106 90.3331 77.6175 91.4174C77.5448 91.8254 77.4149 92.3261 77.3288 92.5301C77.2427 92.734 77.1614 93.1836 77.1482 93.5291C77.1349 93.8746 77.0367 94.3992 76.9298 94.6947C76.823 94.9903 76.7048 95.5659 76.6672 95.9739C76.6296 96.3819 76.523 97.0733 76.4304 97.5104C76.1786 98.6988 76.1796 106.71 76.4317 107.972C76.5276 108.451 76.6347 109.238 76.6696 109.72C76.7046 110.202 76.8199 110.907 76.9256 111.286C77.0315 111.665 77.1441 112.318 77.176 112.737C77.2078 113.157 77.2889 113.603 77.3559 113.728C77.4231 113.854 77.5227 114.272 77.5773 114.657C77.632 115.043 77.7707 115.663 77.8858 116.035C78.0007 116.408 78.0964 116.838 78.0984 116.992C78.1005 117.147 78.1941 117.463 78.3068 117.697C78.4194 117.93 78.5131 118.201 78.5151 118.299C78.522 118.64 79.1574 120.456 79.5257 121.187C79.7294 121.592 79.8962 121.976 79.8962 122.04C79.8962 122.161 80.5413 123.539 81.2761 124.988C81.6788 125.783 81.6894 125.829 81.5349 126.128C81.4463 126.299 81.333 126.765 81.283 127.162C81.2331 127.56 81.121 128.025 81.0339 128.195C80.9468 128.365 80.8395 128.672 80.7955 128.876C80.7517 129.08 80.6266 129.413 80.5179 129.616C80.4091 129.819 80.3201 130.12 80.3201 130.284C80.3201 130.449 80.2758 130.556 80.2218 130.523C80.1677 130.49 80.094 130.555 80.058 130.668C80.0221 130.781 79.7683 131.164 79.4941 131.518C79.2199 131.873 78.7571 132.482 78.4657 132.872C77.7705 133.802 77.3421 134.226 76.2671 135.044C76.1359 135.144 75.7663 135.433 75.4457 135.685C74.6921 136.278 73.9443 136.763 73.2771 137.093C72.9837 137.238 72.6721 137.399 72.5847 137.451C72.4973 137.503 72.1158 137.67 71.737 137.823C71.3582 137.976 70.8719 138.195 70.6564 138.31C70.4408 138.424 70.1969 138.519 70.1144 138.519C70.0317 138.519 69.843 138.614 69.6947 138.73C69.5466 138.847 69.3463 138.942 69.2498 138.942C69.1532 138.942 68.8507 139.031 68.5777 139.139C67.927 139.397 66.3163 139.9 66.1478 139.898C66.0752 139.897 65.7414 139.987 65.406 140.099C65.0707 140.21 64.5352 140.332 64.2162 140.37C63.8971 140.408 63.5822 140.484 63.5163 140.539C63.4505 140.594 62.9963 140.688 62.507 140.749C62.0177 140.81 61.4251 140.93 61.1899 141.014C60.9548 141.099 60.4252 141.21 60.0129 141.262C59.6007 141.314 59.1569 141.413 59.0267 141.483C58.8965 141.552 58.3409 141.652 57.7919 141.704C57.243 141.756 56.5202 141.867 56.1857 141.952C55.8512 142.036 55.1483 142.134 54.6238 142.17C53.4866 142.248 53.1863 142.285 52.5575 142.424C52.2952 142.482 51.6753 142.56 51.1799 142.596C49.7448 142.701 49.298 142.745 47.948 142.914C47.2487 143.001 46.0089 143.119 45.193 143.176C44.377 143.233 43.5664 143.302 43.3916 143.329C43.2167 143.355 41.9293 143.429 40.5305 143.492C39.1318 143.555 37.296 143.679 36.4509 143.766C35.6058 143.854 33.3647 143.975 31.4706 144.033C29.5765 144.092 27.5976 144.186 27.0731 144.241C26.5485 144.297 24.4266 144.392 22.3577 144.452C20.2887 144.512 18.5244 144.582 18.437 144.607C18.0133 144.728 14.3343 144.877 10.2777 144.937C4.9951 145.016 3.45799 145.095 3.01919 145.31C2.73626 145.449 2.70236 145.517 2.71115 145.923C2.71687 146.186 2.78448 146.424 2.8701 146.484C3.06306 146.619 13.6835 146.507 13.7687 146.369C13.8021 146.315 15.8378 146.219 18.3318 146.153C20.8083 146.088 23.3352 145.991 23.9471 145.937C24.5591 145.883 25.3976 145.837 25.8103 145.835C26.2231 145.832 26.5822 145.809 26.6084 145.783C26.6346 145.756 28.0372 145.711 29.7256 145.681C31.4138 145.652 33.1289 145.579 33.5369 145.518C33.9448 145.458 35.3277 145.36 36.6098 145.3C37.892 145.241 39.3702 145.124 39.8947 145.04C40.4193 144.956 41.6352 144.858 42.5968 144.821C43.5585 144.784 44.7744 144.689 45.2989 144.609C45.8234 144.529 47.0871 144.413 48.107 144.351C49.1269 144.289 50.1521 144.19 50.3852 144.132C50.6183 144.074 51.4675 143.98 52.2723 143.923C53.0771 143.865 54.0308 143.75 54.3916 143.667C54.7524 143.584 55.4768 143.485 56.0013 143.447C56.5258 143.41 57.2328 143.311 57.5723 143.227C57.9119 143.144 58.6038 143.028 59.1099 142.971C59.616 142.914 60.2679 142.799 60.5588 142.717C60.8496 142.635 61.3545 142.539 61.6809 142.504C62.0071 142.47 62.4637 142.374 62.6955 142.292C62.9273 142.211 63.3465 142.113 63.6272 142.075C63.9078 142.036 64.273 141.935 64.4386 141.85C64.6042 141.764 64.967 141.667 65.2449 141.634C65.5227 141.601 65.9734 141.482 66.2465 141.371C66.5195 141.259 66.8672 141.168 67.0189 141.168C67.1708 141.168 67.4819 141.072 67.7103 140.956C67.9388 140.839 68.2595 140.744 68.423 140.744C68.5865 140.744 68.8863 140.655 69.0895 140.546C69.2926 140.437 69.6196 140.313 69.8162 140.27C70.0128 140.227 70.3228 140.106 70.5049 140.001C70.6872 139.896 70.9879 139.779 71.1734 139.741C71.3587 139.702 71.5672 139.602 71.6366 139.518C71.7061 139.435 71.846 139.366 71.9476 139.366C72.0492 139.366 72.2497 139.274 72.3933 139.161C72.5369 139.048 72.7822 138.923 72.9384 138.884C73.0947 138.845 73.2484 138.771 73.2798 138.72C73.3114 138.669 73.6968 138.454 74.1362 138.243C75.1452 137.758 76.1944 137.06 76.8763 136.42C77.1677 136.146 77.4227 135.94 77.4431 135.96C77.529 136.047 79.0624 134.467 79.7938 133.538C80.6051 132.508 81.166 131.699 81.1701 131.554C81.1714 131.509 81.2657 131.353 81.3797 131.207C81.4938 131.061 81.5881 130.874 81.5893 130.79C81.5906 130.707 81.6793 130.444 81.7863 130.207C82.1677 129.363 82.4575 128.56 82.504 128.217C82.6288 127.299 82.734 127.195 83.0417 127.684C83.3513 128.176 83.6926 128.572 84.6844 129.589C86.1043 131.046 87.4732 132.108 88.7972 132.778C89.176 132.97 89.9867 133.385 90.5986 133.699C91.2106 134.014 91.7965 134.273 91.9009 134.276C92.0052 134.278 92.269 134.371 92.4871 134.482C92.7052 134.594 93.1443 134.734 93.463 134.793C93.7817 134.853 94.2511 134.977 94.5061 135.068C94.7611 135.159 95.1667 135.234 95.4075 135.234C95.6482 135.234 96.0118 135.282 96.2155 135.341C97.1084 135.599 98.1265 135.662 101.434 135.66C104.964 135.659 105.793 135.623 106.504 135.439C106.714 135.384 107.429 135.296 108.093 135.241C108.758 135.187 109.442 135.089 109.615 135.024C109.787 134.958 110.312 134.859 110.78 134.803C111.249 134.747 111.823 134.632 112.056 134.547C112.289 134.463 112.796 134.344 113.182 134.284C113.569 134.224 114.056 134.103 114.265 134.015C114.474 133.928 114.731 133.856 114.835 133.855C114.938 133.855 115.166 133.778 115.341 133.685C115.516 133.591 115.921 133.451 116.242 133.373C117.677 133.026 118.236 132.868 118.699 132.68C118.972 132.569 119.29 132.479 119.405 132.479C119.521 132.479 119.822 132.39 120.074 132.283C120.327 132.175 120.719 132.052 120.946 132.01C121.173 131.968 121.46 131.869 121.582 131.79C121.705 131.711 121.996 131.613 122.229 131.571C122.462 131.53 122.83 131.407 123.046 131.299C123.262 131.19 123.514 131.101 123.607 131.101C123.699 131.101 124.157 130.913 124.625 130.684C125.093 130.455 125.628 130.234 125.813 130.195C125.998 130.155 126.201 130.081 126.265 130.031C126.328 129.98 126.566 129.869 126.795 129.785C127.023 129.7 127.853 129.362 128.64 129.033C129.427 128.704 130.166 128.408 130.282 128.375C130.399 128.341 130.613 128.235 130.759 128.139C130.905 128.043 131.501 127.737 132.084 127.46C132.666 127.182 133.227 126.911 133.329 126.856C133.594 126.714 133.754 126.633 134.998 126.012C135.61 125.706 136.301 125.344 136.534 125.207C136.767 125.069 137.101 124.884 137.276 124.795C137.451 124.707 137.897 124.444 138.267 124.212C138.637 123.98 138.954 123.79 138.972 123.79C138.99 123.79 139.352 123.575 139.778 123.313C140.203 123.05 140.588 122.836 140.633 122.836C140.678 122.836 141.092 122.538 141.554 122.174C142.016 121.809 142.572 121.392 142.789 121.246C143.006 121.101 143.297 120.876 143.435 120.748C143.574 120.619 143.687 120.539 143.687 120.57C143.687 120.6 144.039 120.333 144.471 119.977C145.638 119.011 147.743 116.879 148.182 116.219C148.393 115.9 148.613 115.61 148.671 115.575C149.053 115.339 150.37 112.853 150.69 111.763C150.758 111.529 150.853 111.289 150.9 111.229C150.948 111.168 151.037 110.715 151.098 110.222C151.16 109.729 151.247 109.182 151.293 109.007C151.477 108.31 151.15 106.074 150.791 105.57C150.672 105.403 150.574 105.234 150.574 105.196C150.574 105.062 149.989 104.342 149.515 103.894C149.252 103.646 148.871 103.39 148.667 103.324C148.463 103.259 148.236 103.157 148.163 103.099C147.914 102.901 146.393 102.604 145.613 102.6C144.667 102.596 143.158 102.859 142.545 103.135C142.296 103.247 142.028 103.338 141.95 103.338C141.735 103.338 140.752 103.864 139.925 104.422C138.881 105.125 138.749 105.222 137.878 105.907C137.452 106.243 137.07 106.518 137.03 106.519C136.991 106.519 136.72 106.741 136.428 107.011C135.873 107.526 134.797 108.397 133.503 109.378C133.081 109.699 132.446 110.201 132.092 110.495C131.738 110.788 131.313 111.096 131.147 111.18C130.982 111.263 130.729 111.441 130.584 111.575C130.439 111.709 130.146 111.914 129.931 112.03C129.439 112.297 129.203 112.443 128.779 112.742C128.594 112.874 128.398 112.981 128.345 112.981C128.292 112.981 128.162 113.077 128.057 113.193C127.952 113.31 127.785 113.405 127.686 113.405C127.588 113.405 127.421 113.5 127.315 113.617C127.21 113.734 127.047 113.829 126.954 113.83C126.861 113.83 126.642 113.925 126.468 114.041C126.293 114.157 126.076 114.252 125.987 114.252C125.897 114.252 125.642 114.345 125.42 114.459C125.198 114.572 124.867 114.697 124.684 114.737C124.501 114.777 124.255 114.871 124.138 114.945C124.02 115.019 123.667 115.133 123.353 115.198C123.039 115.263 122.634 115.382 122.453 115.463C122.271 115.543 121.932 115.658 121.699 115.718C121.466 115.778 121.085 115.9 120.851 115.989C120.618 116.078 120.247 116.153 120.027 116.155C119.806 116.158 119.449 116.235 119.232 116.326C119.015 116.417 118.311 116.535 117.666 116.588C117.021 116.641 116.148 116.757 115.727 116.846C115.124 116.973 114.143 117.008 111.169 117.012C107.73 117.016 107.289 116.997 106.407 116.8C105.873 116.681 105.246 116.584 105.014 116.584C104.782 116.584 104.388 116.491 104.138 116.378C103.889 116.265 103.557 116.145 103.401 116.113C103.245 116.08 103.046 115.982 102.958 115.895C102.871 115.808 102.75 115.736 102.69 115.736C102.569 115.736 101.375 114.795 101.318 114.655C101.298 114.607 101.224 114.508 101.153 114.436C100.791 114.07 100.423 111.907 100.581 111.076C100.631 110.812 100.721 110.249 100.781 109.824C100.841 109.399 100.963 108.851 101.053 108.606C101.142 108.36 101.239 107.993 101.268 107.789C101.297 107.585 101.411 107.209 101.523 106.954C101.634 106.699 101.725 106.412 101.725 106.317C101.725 106.221 101.82 105.965 101.937 105.748C102.053 105.53 102.149 105.25 102.149 105.125C102.149 104.885 102.248 104.648 103.035 102.998C103.305 102.432 103.526 101.898 103.526 101.811C103.526 101.725 103.645 101.43 103.791 101.156C103.937 100.882 104.056 100.594 104.056 100.517C104.056 100.44 104.151 100.22 104.268 100.03C104.384 99.8387 104.479 99.6163 104.479 99.5354C104.48 99.4543 104.58 99.1682 104.703 98.8996C104.826 98.6309 105.013 98.2203 105.119 97.9872C105.225 97.7541 105.434 97.2963 105.584 96.97C105.735 96.6437 105.857 96.3085 105.857 96.2254C105.857 96.1422 105.937 95.9609 106.034 95.8227C106.307 95.4327 106.691 94.6383 106.761 94.3179C106.796 94.1585 106.888 93.9755 106.966 93.9111C107.043 93.8468 107.14 93.6169 107.18 93.4005C107.22 93.184 107.344 92.8582 107.456 92.6765C107.568 92.4948 107.659 92.2794 107.659 92.1981C107.659 92.1167 107.749 91.8809 107.86 91.6743C107.971 91.4676 108.112 91.1344 108.174 90.934C108.385 90.2462 108.682 89.4705 108.786 89.3314C108.95 89.1132 109.696 87.0261 109.935 86.1192C110.011 85.8278 110.151 85.4121 110.244 85.1954C110.337 84.9787 110.414 84.6312 110.414 84.4229C110.414 84.2148 110.503 83.8676 110.612 83.6513C110.72 83.4352 110.842 82.9592 110.882 82.5936C110.922 82.228 111.021 81.7405 111.103 81.51C111.184 81.2795 111.302 80.6183 111.366 80.0406C111.43 79.4629 111.528 78.8299 111.585 78.634C111.75 78.0645 111.826 76.2085 111.707 75.6288C111.403 74.1435 111.24 73.48 111.109 73.1916C111.029 73.0168 110.894 72.7068 110.809 72.5028C110.567 71.925 109.866 71.2105 109.182 70.8464C108.46 70.4615 106.87 70.1093 106.356 70.2205C106.169 70.2608 105.719 70.3333 105.355 70.3814C104.581 70.4836 103.42 70.9047 102.202 71.5252C101.422 71.9219 101.316 71.9862 101.193 72.1342C101.122 72.2203 101.006 72.2909 100.937 72.2909C100.868 72.2909 100.671 72.4394 100.5 72.6208C100.328 72.8023 99.9976 73.0726 99.7645 73.2216C98.8245 73.8223 95.7767 77.0411 94.7258 78.5428C94.5831 78.7468 94.2969 79.1282 94.0897 79.3905C93.5649 80.055 92.9449 80.993 92.4981 81.7982C92.2898 82.1737 92.0717 82.5127 92.0136 82.5516C91.9554 82.5906 91.8801 82.6973 91.8466 82.7889C91.813 82.8804 91.4827 83.4289 91.1125 84.0077C90.7425 84.5863 90.2728 85.3937 90.0688 85.8015C89.8648 86.2094 89.6622 86.559 89.6184 86.5784C89.5747 86.5979 89.539 86.6748 89.539 86.7495C89.539 86.8242 89.4512 86.999 89.344 87.1381C89.2368 87.2771 89.0988 87.5382 89.0375 87.7183C88.9761 87.8986 88.7295 88.3693 88.4895 88.7643C88.2495 89.1594 88.0246 89.5961 87.9898 89.7348C87.955 89.8734 87.8812 89.9869 87.8259 89.9869C87.7704 89.9869 87.7545 90.0346 87.7906 90.0929C87.8266 90.1512 87.8055 90.1988 87.7438 90.1988C87.6822 90.1988 87.6316 90.3152 87.6316 90.4575C87.6316 90.5998 87.5895 90.7422 87.538 90.774C87.3872 90.8673 86.6103 92.6244 85.895 94.4904C85.828 94.6652 85.6945 94.9275 85.5984 95.0732C85.5023 95.2189 85.3708 95.5388 85.3061 95.784C85.2416 96.0292 85.1486 96.2547 85.0995 96.285C85.0504 96.3153 84.9787 96.5378 84.9401 96.7796C84.9015 97.0213 84.8135 97.3204 84.7447 97.4442C84.6758 97.568 84.6298 97.7051 84.6422 97.7488C84.6544 97.7925 84.6169 97.8283 84.5587 97.8283C84.5004 97.8283 84.4527 97.9197 84.4527 98.0314C84.4527 98.1431 84.3573 98.4571 84.2408 98.729C84.1242 99.0009 84.0288 99.3303 84.0288 99.4611C84.0288 99.5917 83.9139 100.029 83.7735 100.432C83.633 100.836 83.5041 101.357 83.487 101.59C83.47 101.823 83.3901 102.119 83.3094 102.248C83.2288 102.376 83.1916 102.528 83.2267 102.585C83.2618 102.641 83.252 102.712 83.205 102.741C83.1579 102.77 83.1081 102.976 83.0942 103.199C83.0802 103.421 82.9749 103.878 82.86 104.213C82.7453 104.548 82.6513 104.986 82.6513 105.185C82.6513 105.385 82.5542 106.04 82.4357 106.642C82.1844 107.916 82.1344 109.426 82.0826 117.295C82.0436 123.227 82.0103 123.479 81.4575 122.019C81.2855 121.565 81.0598 121.026 80.9559 120.823C80.852 120.619 80.7317 120.285 80.6886 120.082C80.6455 119.879 80.548 119.617 80.472 119.5C80.3961 119.382 80.2764 119.055 80.2062 118.774C80.1359 118.492 80.0233 118.24 79.9558 118.214C79.8884 118.188 79.8212 117.99 79.8067 117.774C79.7921 117.557 79.7111 117.242 79.6267 117.073C79.5423 116.903 79.4218 116.45 79.359 116.065C79.2963 115.68 79.18 115.193 79.1008 114.983C79.0214 114.773 78.9233 114.296 78.8826 113.924C78.8419 113.551 78.7196 112.893 78.6107 112.461C78.5018 112.029 78.4127 111.429 78.4127 111.127C78.4127 110.825 78.3193 110.129 78.2052 109.581C78.0141 108.663 77.8299 105.339 77.8299 102.809C77.8299 100.654 78.0128 96.9544 78.1494 96.3448C78.2343 95.966 78.3526 95.2269 78.4123 94.7023C78.4721 94.1778 78.5895 93.5341 78.6732 93.2718C78.7569 93.0096 78.8577 92.5566 78.897 92.2652C78.9364 91.9738 79.0307 91.5831 79.1067 91.3969C79.1826 91.2108 79.276 90.8055 79.3143 90.4962C79.3526 90.187 79.4753 89.7252 79.5871 89.4701C79.6988 89.215 79.7903 88.9183 79.7903 88.8107C79.7903 88.7031 79.8811 88.4111 79.992 88.1619C80.103 87.9127 80.3221 87.3511 80.479 86.914C80.636 86.4769 80.8551 85.9153 80.966 85.666C81.077 85.4168 81.1678 85.1289 81.1678 85.0262C81.1678 84.9235 81.2632 84.6525 81.3797 84.4238C81.4963 84.1951 81.5917 83.9645 81.5917 83.9114C81.5917 83.813 81.9778 82.8738 82.3441 82.0809C82.4548 81.8415 82.5453 81.586 82.5453 81.5132C82.5453 81.4403 82.8609 80.7303 83.2465 79.9353C83.6322 79.1402 84.0411 78.2752 84.1553 78.013C84.2694 77.7507 84.4545 77.3598 84.5666 77.1443C84.6788 76.9287 84.7706 76.6963 84.7706 76.6277C84.7706 76.5591 84.8938 76.2109 85.0445 75.8539C85.3005 75.2472 85.4027 75.0159 85.9277 73.8539C86.0397 73.6061 86.2062 73.1889 86.2977 72.9267C86.3894 72.6644 86.6625 72.2353 86.9047 71.973C87.1469 71.7107 87.6095 71.1385 87.9327 70.7014C88.2559 70.2643 88.651 69.7636 88.8109 69.5888C89.1861 69.1785 89.8561 68.1727 89.8592 68.0152C89.8605 67.9482 89.9548 67.7742 90.0688 67.6285C90.1828 67.4828 90.2771 67.2957 90.2784 67.213C90.2797 67.1301 90.3483 66.9871 90.4309 66.8951C90.5135 66.803 90.7794 66.2748 91.0216 65.7211C91.264 65.1674 91.5064 64.6691 91.5602 64.6138C91.6142 64.5584 91.6583 64.4385 91.6583 64.3473C91.6583 64.2562 91.746 64.0153 91.8533 63.8122C91.9606 63.609 92.1072 63.2051 92.1791 62.9144C92.2509 62.6239 92.3512 62.3361 92.4018 62.2751C92.4526 62.214 92.5407 61.8796 92.5978 61.5319C92.6551 61.1843 92.7769 60.7225 92.8688 60.5058C92.9607 60.2891 93.0358 59.9047 93.0358 59.6515C93.0358 59.3983 93.1266 58.8365 93.2377 58.403C93.3486 57.9695 93.4441 57.3246 93.4497 56.9698C93.4553 56.615 93.561 55.8044 93.6844 55.1685C93.8935 54.0919 93.9121 53.5842 93.9547 47.8132C93.9799 44.4038 93.9622 40.2553 93.9155 38.5943C93.8688 36.9333 93.8644 34.5729 93.9059 33.349C93.9717 31.4044 94.0151 31.0109 94.2509 30.2287C94.5047 29.3866 94.8942 28.636 95.0783 28.6344C95.2048 28.6332 95.3309 29.0472 95.4167 29.7462C95.4596 30.0957 95.5601 30.508 95.6398 30.6622C95.7196 30.8164 95.8172 31.1503 95.8569 31.4041C95.8966 31.6579 96.0172 32.0317 96.1249 32.2348C96.2325 32.438 96.3207 32.6804 96.3207 32.7737C96.3207 32.936 97.1627 34.6488 97.55 35.2744C98.7755 37.2536 99.23 37.7359 100.469 38.371C101.455 38.8768 101.94 38.9226 102.672 38.5788C104 37.9541 104.551 36.7447 104.644 34.2497C104.662 33.7544 104.636 33.1106 104.586 32.8192C104.535 32.5278 104.47 32.0662 104.441 31.7935C104.411 31.5207 104.313 31.1536 104.222 30.9776C104.131 30.8016 104.056 30.5955 104.056 30.5198C104.055 30.1301 103.358 29.0446 102.658 28.3422C102.237 27.9198 101.86 27.574 101.82 27.574C101.78 27.574 101.516 27.382 101.233 27.1473C100.95 26.9126 100.527 26.6649 100.294 26.597C100.061 26.529 99.7535 26.3992 99.6106 26.3085C99.4138 26.1835 98.9734 26.1348 97.798 26.1076L96.2455 26.0716L96.1084 24.4972C95.9745 22.9583 95.9866 22.3579 96.21 19.4677L96.3164 18.0902L96.7159 17.7193C96.9443 17.5073 97.2516 17.3337 97.4333 17.314C97.6081 17.295 97.8227 17.2184 97.9102 17.1436C97.9976 17.0688 98.2122 16.9578 98.387 16.8969C98.5618 16.836 98.9195 16.6623 99.1817 16.511C99.444 16.3597 99.8255 16.1604 100.029 16.0682C100.233 15.976 100.829 15.6953 101.354 15.4446C101.879 15.1938 102.546 14.8844 102.837 14.757C103.129 14.6296 103.439 14.4801 103.526 14.4248C103.614 14.3695 103.852 14.2481 104.056 14.1551C104.26 14.0622 104.665 13.8321 104.957 13.6439C105.248 13.4557 105.916 13.0486 106.44 12.7394C107.558 12.0804 108.247 11.5446 108.997 10.7501L109.541 10.1746L109.845 10.3606C110.313 10.6473 111.348 11.7837 111.624 12.3151C111.761 12.5774 111.901 12.9953 111.935 13.2439C111.969 13.4924 112.051 13.7962 112.117 13.9189C112.183 14.0417 112.277 14.6099 112.327 15.1816C112.376 15.7534 112.489 16.4748 112.577 16.7848C112.665 17.0948 112.767 17.629 112.805 17.972C112.843 18.3151 112.963 18.7919 113.072 19.0317C113.181 19.2715 113.271 19.5546 113.273 19.6608C113.275 19.8355 113.757 20.7695 113.911 20.8982C114.048 21.0127 114.652 21.9749 114.652 22.0791C114.652 22.241 117.194 24.7428 118.335 25.7032C118.874 26.1572 119.315 26.5033 119.315 26.4724C119.315 26.4099 119.482 26.5502 120.454 27.4305C120.818 27.7603 121.116 28.0937 121.116 28.1715C121.116 28.2493 120.955 28.3802 120.758 28.4625C120.561 28.5447 120.368 28.6646 120.328 28.7288C120.289 28.793 120.122 28.8456 119.959 28.8456C119.795 28.8456 119.54 28.9409 119.392 29.0575C119.244 29.1741 119.078 29.2694 119.024 29.2694C118.855 29.2694 117.937 30.0325 117.937 30.173C117.937 30.2463 117.866 30.3338 117.778 30.3674C117.691 30.4009 117.619 30.5014 117.619 30.5907C117.619 30.6799 117.584 30.7532 117.54 30.7536C117.403 30.7547 117.077 31.4099 116.801 32.2364C116.612 32.8044 116.51 33.4195 116.444 34.3919C116.393 35.1404 116.283 36.1417 116.2 36.6172C116.117 37.0927 116.046 37.7493 116.043 38.0765C116.037 38.6914 115.979 38.9838 115.614 40.2254C114.942 42.5121 113.996 43.3066 111.633 43.5724C110.991 43.6445 110.252 43.6864 109.99 43.6655L109.513 43.6276L109.394 42.6739C109.328 42.1494 109.243 41.601 109.205 41.4553C109.166 41.3096 109.106 40.9591 109.07 40.6763C108.991 40.0536 108.507 39.1264 108.069 38.7582C107.647 38.4031 106.986 38.3897 106.529 38.7267C105.586 39.4239 105.089 40.1642 104.898 41.1582C104.669 42.3471 105.004 43.2132 105.976 43.9503C106.312 44.2052 107.393 44.7402 107.572 44.7402C107.799 44.7402 107.79 44.6764 107.78 46.2237C107.775 46.8939 107.765 48.396 107.757 49.5616C107.748 50.8184 107.682 52.0259 107.595 52.5286C107.515 52.9948 107.417 54.4636 107.378 55.7926L107.308 58.2088L106.715 58.1453C106.389 58.1103 105.693 58.0302 105.169 57.9673C101.775 57.56 99.3394 58.3017 97.2166 60.3892C96.5779 61.0174 96.4287 61.2371 96.1829 61.9122C95.8234 62.9001 95.8241 63.2025 96.1882 63.9975C96.6376 64.9788 97.3912 65.497 98.9463 65.8941C99.794 66.1104 100.182 66.145 101.762 66.145C103.026 66.145 103.756 66.0984 104.116 65.9948C104.404 65.9123 104.937 65.8121 105.302 65.7724C106.458 65.6464 107.565 65.1758 108.539 64.3966C109.479 63.6452 109.514 63.5606 109.509 62.057L109.505 60.7408H109.794C109.953 60.7408 110.112 60.7873 110.147 60.8441C110.182 60.901 110.571 61.1185 111.012 61.3273C111.452 61.5363 112.089 61.907 112.428 62.1512C112.766 62.3954 113.131 62.6534 113.239 62.7247C113.346 62.7959 113.696 63.0288 114.017 63.2422C114.337 63.4556 115.317 64.351 116.194 65.232C117.679 66.7225 118.264 67.4462 118.733 68.3702C118.836 68.5742 118.95 68.7649 118.986 68.7941C119.062 68.8549 119.556 69.6164 119.674 69.8537C119.717 69.9411 119.892 70.2511 120.061 70.5425C120.231 70.8339 120.424 71.1915 120.49 71.3372C120.555 71.4829 120.653 71.6737 120.706 71.7611C120.759 71.8485 120.876 72.0869 120.966 72.2909C121.056 72.4949 121.198 72.812 121.282 72.9957C121.366 73.1793 121.434 73.3641 121.434 73.4063C121.434 73.5159 122.038 74.9451 122.535 76.0102C122.687 76.3365 122.812 76.6722 122.812 76.756C122.812 76.8399 122.907 77.0948 123.023 77.3223C123.139 77.5499 123.264 77.9057 123.302 78.113C123.34 78.3203 123.452 78.6567 123.553 78.8607C123.653 79.0647 123.767 79.4363 123.805 79.6866C123.844 79.9367 123.923 80.2228 123.982 80.3223C124.083 80.4926 124.333 81.3533 124.666 82.6754C124.848 83.399 125.114 84.1832 125.371 84.7533C125.479 84.9928 125.569 85.3028 125.571 85.4421C125.574 85.5814 125.649 85.8861 125.738 86.1192C125.828 86.3523 125.961 86.8053 126.035 87.1259C126.164 87.6816 126.348 88.3002 126.697 89.3511C126.785 89.6134 126.897 90.0541 126.947 90.3304C126.996 90.6067 127.105 90.9643 127.187 91.1251C127.339 91.4234 127.602 92.1411 127.838 92.9009C127.984 93.373 128.412 94.2689 128.8 94.9143C128.941 95.1474 129.129 95.4679 129.22 95.6266C130.199 97.3466 131.409 97.9527 132.805 97.4229C133.476 97.1679 134.423 96.3208 135.17 95.3087C135.501 94.8586 135.902 94.3228 136.059 94.118C136.216 93.9132 136.381 93.6338 136.424 93.4971C136.467 93.3605 136.748 92.8943 137.048 92.461C137.6 91.6639 138.124 90.8075 138.238 90.5167C138.385 90.1396 138.489 89.9339 138.815 89.3776C138.875 89.2756 139.019 89.0015 139.136 88.7683C139.253 88.5352 139.392 88.2729 139.444 88.1855C139.496 88.0981 139.637 87.812 139.756 87.5497C139.875 87.2875 140.143 86.8106 140.351 86.4901C140.559 86.1696 141.04 85.2874 141.419 84.5298C141.799 83.7721 142.273 82.8423 142.474 82.4635C142.674 82.0846 142.838 81.7369 142.838 81.6907C142.839 81.6445 143.018 81.3584 143.237 81.0549C143.456 80.7514 143.894 79.9786 144.211 79.3375C144.527 78.6964 144.843 78.1004 144.913 78.013C144.983 77.9255 145.179 77.5918 145.349 77.2712C145.519 76.9507 145.834 76.4133 146.05 76.0771C146.265 75.7408 146.442 75.4412 146.442 75.4112C146.442 75.3812 146.729 74.8806 147.081 74.2985C147.433 73.7165 147.764 73.1253 147.817 72.9847C147.909 72.7427 148.749 71.4736 149.051 71.1198C149.129 71.0293 149.207 70.8525 149.227 70.7271C149.246 70.6016 149.339 70.4134 149.433 70.3088C149.527 70.2043 149.62 70.0471 149.639 69.9597C149.658 69.8723 149.701 69.7769 149.734 69.7477C149.862 69.6342 150.576 68.4879 151.02 67.6814C151.276 67.2152 151.665 66.6 151.884 66.3143C152.103 66.0286 152.472 65.4564 152.704 65.0427C153.237 64.0939 153.226 64.1117 154.177 62.665C154.614 62 155.019 61.3785 155.077 61.2838C155.135 61.1891 155.44 60.7113 155.756 60.222C156.072 59.7326 156.443 59.1128 156.581 58.8445C156.718 58.5762 156.913 58.2297 157.014 58.0745C157.515 57.3031 157.865 56.6247 157.935 56.2903C157.978 56.0863 158.083 55.8088 158.169 55.6736C158.386 55.3307 158.527 53.7778 158.423 52.8666C158.375 52.4421 158.23 51.8935 158.096 51.6279C157.774 50.9928 156.32 49.5086 156.02 49.5086C155.893 49.5086 155.714 49.3909 155.617 49.2437C155.522 49.098 155.385 48.9773 155.314 48.9755C155.242 48.9737 154.945 48.8549 154.654 48.7115C154.363 48.5682 154.051 48.4504 153.962 48.4499C153.873 48.4494 153.704 48.3813 153.586 48.2988C153.468 48.2161 153.184 48.1134 152.954 48.0702C152.725 48.0272 152.346 47.9051 152.112 47.799C151.878 47.6928 151.557 47.6048 151.398 47.6036C151.24 47.6023 150.906 47.5091 150.657 47.3966C150.041 47.1186 149.251 46.8623 148.614 46.7335C148.323 46.6747 147.88 46.5359 147.631 46.4251C147.382 46.3143 147.072 46.2226 146.942 46.2214C146.813 46.2201 146.51 46.1299 146.271 46.021C146.031 45.9121 145.673 45.7886 145.476 45.7466C145.279 45.7046 145.046 45.6097 144.958 45.5357C144.871 45.4616 144.68 45.3687 144.534 45.329C144.207 45.2401 143.148 44.7328 142.98 44.5844C142.912 44.5245 142.61 44.3322 142.309 44.1574C142.009 43.9826 141.47 43.6167 141.112 43.3442C140.754 43.0718 140.417 42.8765 140.362 42.9103C140.308 42.944 140.296 42.9189 140.335 42.8546C140.375 42.7901 140.316 42.6884 140.204 42.6284C139.93 42.4819 138.654 40.8614 137.987 39.8129C137.69 39.3466 137.395 38.9056 137.331 38.8327C137.267 38.7599 137.248 38.7002 137.288 38.7002C137.329 38.7002 137.29 38.6167 137.201 38.5148C137.113 38.4129 136.865 37.9479 136.65 37.4816C136.436 37.0154 136.218 36.5564 136.166 36.4615C136.114 36.3667 136.038 36.1044 135.996 35.8787C135.954 35.653 135.832 35.3022 135.724 35.099C135.616 34.8959 135.527 34.5955 135.527 34.4315C135.527 34.2674 135.457 33.9971 135.371 33.8308C135.285 33.6644 135.162 33.178 135.098 32.7499C135.033 32.3218 134.917 31.7331 134.839 31.4417C134.632 30.6634 134.554 29.3743 134.712 29.3234C134.782 29.3009 135.163 29.2554 135.56 29.2224C135.957 29.1893 136.41 29.0977 136.567 29.0188C136.724 28.9399 136.985 28.8434 137.147 28.8044C137.592 28.6977 138.476 28.0197 138.795 27.5408C139.592 26.3429 139.653 26.1865 139.657 25.3153C139.661 24.152 139.323 23.6312 138.305 23.2354C137.609 22.9647 137.347 22.9647 136.483 23.2355C135.835 23.4387 134.724 24.0509 134.823 24.1502C134.849 24.1754 134.767 24.3101 134.642 24.4494C134.208 24.9332 133.832 25.4313 133.831 25.5222C133.831 25.5725 133.754 25.7567 133.659 25.9315C133.565 26.1064 133.475 26.3448 133.458 26.4614C133.417 26.7523 133.215 27.2561 133.14 27.2561C133.106 27.2561 133.098 27.2203 133.124 27.1766C133.149 27.1329 133.136 27.0029 133.094 26.8878C133.015 26.6716 133.283 25.4576 133.492 25.0836C133.557 24.9672 133.688 24.6956 133.783 24.4802C133.99 24.0139 134.912 23.0213 135.783 22.3291L136.409 21.831L137.213 21.8692C138.067 21.9097 137.995 21.8763 139.284 22.8317C139.578 23.05 139.854 23.2287 139.896 23.229C139.966 23.2295 141.055 24.0839 142.164 25.0075C143.1 25.7874 145.411 26.937 146.047 26.9396C146.235 26.9403 146.691 27.0357 147.06 27.1515C148.031 27.4556 151.089 27.4549 152.323 27.1501C152.789 27.035 153.349 26.9401 153.567 26.9395C153.785 26.9387 154.214 26.8428 154.52 26.7264C154.827 26.6098 155.173 26.513 155.29 26.5111C155.406 26.5093 155.74 26.3905 156.032 26.2471C156.323 26.1037 156.633 25.9861 156.72 25.9858C156.808 25.9854 157.07 25.8921 157.303 25.7784C157.536 25.6648 157.798 25.5466 157.886 25.5156C157.973 25.4848 158.283 25.3157 158.575 25.1398C158.866 24.9639 159.414 24.6718 159.793 24.4906C160.172 24.3095 160.625 24.0885 160.8 23.9996C161.668 23.5583 163.926 23.3023 164.774 23.549C164.978 23.6083 165.422 23.6777 165.76 23.7034C166.124 23.7311 166.52 23.8389 166.727 23.9666C166.919 24.0858 167.148 24.1831 167.235 24.1831C167.492 24.1831 168.453 24.7124 169.754 25.5706C170.424 26.0127 171.097 26.4417 171.25 26.5239C171.542 26.6808 172.064 26.986 172.774 27.4134C173.773 28.0149 174.358 28.2277 175.178 28.2866C175.922 28.3401 176.04 28.32 176.552 28.0522C177.58 27.5147 178.82 26.3559 179.558 25.2436C179.731 24.9819 180.099 24.4845 180.375 24.1383C180.651 23.7921 180.861 23.4925 180.84 23.4723C180.82 23.4522 180.988 23.2343 181.214 22.9882C181.439 22.742 181.654 22.4453 181.691 22.3288C181.789 22.0214 182.231 21.4454 183.162 20.414C183.28 20.2827 183.495 20.0198 183.639 19.8296C184.866 18.2065 186.237 16.9912 187.56 16.3518C188.182 16.0514 188.493 16.2217 188.837 17.051C189.081 17.6398 189.093 17.778 189.108 20.2625C189.121 22.4459 189.093 22.9767 188.934 23.602C188.829 24.0108 188.709 24.6784 188.666 25.0855C188.624 25.4925 188.516 25.9686 188.426 26.1435C188.337 26.3183 188.246 26.6221 188.224 26.8186C188.202 27.015 188.107 27.3235 188.014 27.5042C187.921 27.6847 187.784 28.0962 187.71 28.4185C187.546 29.1337 187.075 30.428 186.924 30.579C186.765 30.7383 186.783 30.1928 186.967 29.2543C187.231 27.9152 187.412 22.256 187.221 21.347C187.064 20.6023 186.538 20.1049 185.999 20.1923C185.802 20.2243 185.496 20.3723 185.318 20.5213C185.141 20.6704 185.019 20.7923 185.047 20.7923C185.075 20.7923 184.962 20.9381 184.795 21.1162C184.629 21.2943 184.368 21.6877 184.216 21.9904C184.064 22.2931 183.897 22.6122 183.845 22.6996C183.792 22.7871 183.599 23.1924 183.416 23.6003C182.638 25.3269 182.682 25.2344 182.136 26.3024C181.971 26.623 181.822 27.0283 181.803 27.2031C181.783 27.378 181.685 27.6471 181.584 27.8012C181.483 27.9554 181.371 28.2653 181.335 28.4899C181.3 28.7147 181.211 28.9939 181.139 29.1105C181.002 29.3313 180.605 30.8995 180.293 32.4483C180.03 33.7558 179.974 35.2208 180.169 35.7102C180.255 35.9268 180.36 36.3121 180.402 36.5664C180.494 37.1182 180.834 37.6486 181.367 38.0723C181.72 38.3529 181.833 38.3823 182.553 38.3823C183.285 38.3823 183.393 38.3528 183.907 38.0115C184.214 37.8075 184.488 37.6406 184.514 37.6406C184.605 37.6406 184.472 39.6002 184.315 40.5914C184.228 41.1362 184.111 42.3999 184.054 43.3994C183.998 44.3991 183.906 45.4316 183.85 45.6939C183.795 45.9561 183.722 46.5283 183.69 46.9654C183.657 47.4025 183.598 48.0701 183.558 48.4489C183.518 48.8278 183.482 49.1854 183.478 49.2437C183.474 49.302 183.439 49.4007 183.4 49.463C183.301 49.6196 183.228 50.0592 183.145 50.9921C183.105 51.4292 182.985 52.0446 182.877 52.3598C182.77 52.6748 182.682 53.077 182.682 53.2535C182.682 53.4299 182.595 53.7681 182.49 54.0051C182.166 54.7309 181.927 55.4683 181.822 56.0622C181.767 56.3738 181.628 56.8129 181.513 57.0381C181.398 57.2633 181.304 57.508 181.304 57.5821C181.304 57.6562 181.215 57.9561 181.105 58.2486C180.682 59.3824 180.002 61.5324 179.954 61.8907C179.926 62.0976 179.838 62.3673 179.757 62.4901C179.617 62.7042 179.402 63.7274 179.191 65.1913C179.038 66.2506 179.324 68.8038 179.719 69.9067C179.823 70.1981 179.936 70.6034 179.971 70.8074C180.005 71.0114 180.1 71.3213 180.181 71.4962C180.458 72.0919 180.88 73.2483 180.88 73.4099C180.88 73.4985 180.976 73.7579 181.092 73.9863C181.234 74.2645 181.304 74.6109 181.304 75.0347C181.304 75.6486 181.289 75.6835 180.789 76.1964C180.447 76.5474 180.129 76.7642 179.844 76.841C179.608 76.9047 179.279 77.0272 179.114 77.1133C178.633 77.364 178.119 77.3066 177.447 76.9268C177.112 76.7375 176.717 76.5178 176.569 76.4389C176.422 76.3599 176.211 76.205 176.101 76.0945C175.99 75.9841 175.836 75.8937 175.757 75.8937C175.679 75.8937 175.528 75.7983 175.423 75.6817C175.318 75.5652 175.188 75.4698 175.135 75.4698C175.082 75.4698 174.768 75.3461 174.436 75.1948C174.105 75.0436 173.619 74.8228 173.357 74.7041C173.094 74.5854 172.704 74.3993 172.488 74.2903C172.272 74.1814 171.996 74.0923 171.874 74.0923C171.753 74.0923 171.476 74.0034 171.26 73.8947C171.043 73.7861 170.676 73.6632 170.443 73.6219C170.21 73.5806 169.919 73.4826 169.797 73.4042C169.675 73.3256 169.317 73.2136 169.002 73.155C168.687 73.0965 168.286 72.9738 168.111 72.8824C167.937 72.7909 167.696 72.7158 167.578 72.7154C167.459 72.7151 167.091 72.6194 166.759 72.5028C166.428 72.3863 165.929 72.2904 165.65 72.2898C165.372 72.2892 164.602 72.1938 163.94 72.0779C162.359 71.8013 161.283 71.8078 159.805 72.1029C158.718 72.3199 158.552 72.3841 158.138 72.7483C157.604 73.218 157.407 73.7703 157.499 74.5428C157.605 75.4403 158.77 76.7613 160.005 77.3848C160.384 77.576 160.82 77.8194 160.975 77.9257C161.13 78.0319 161.344 78.1191 161.452 78.1194C161.56 78.1196 161.795 78.2094 161.974 78.319C162.154 78.4286 162.512 78.5532 162.769 78.596C163.026 78.6388 163.357 78.7351 163.503 78.8099C163.65 78.8848 164.007 78.9814 164.298 79.0244C164.589 79.0675 165.017 79.1694 165.25 79.251C166.018 79.5203 170.351 79.809 171.873 79.6924C173.768 79.5471 174.491 79.4909 175.124 79.4395C175.484 79.4101 175.937 79.3209 176.13 79.2411C176.324 79.1613 176.819 79.063 177.23 79.0226L177.978 78.9493L178.555 79.4083C178.872 79.6608 179.37 80.0315 179.662 80.2322C179.953 80.4329 180.549 80.8851 180.986 81.2372C182.04 82.0864 186.776 86.8326 187.353 87.6188C187.604 87.9597 188.156 88.62 188.58 89.0862C189.004 89.5525 189.499 90.1671 189.679 90.4519C189.859 90.7367 190.363 91.4172 190.798 91.9641C191.234 92.5109 191.769 93.2353 191.988 93.5737C192.514 94.3883 193.191 95.3189 193.327 95.416C193.388 95.4588 193.401 95.4945 193.357 95.4955C193.312 95.4963 193.442 95.7236 193.644 96.0004C194.091 96.6131 195.773 99.1373 196.139 99.7455C196.285 99.9876 196.726 100.617 197.119 101.145C197.513 101.672 197.834 102.16 197.834 102.228C197.834 102.296 197.918 102.454 198.02 102.578C198.31 102.931 198.837 103.702 199.477 104.708C199.535 104.8 199.905 105.312 200.298 105.847C200.691 106.381 201.013 106.864 201.013 106.92C201.013 106.976 201.088 107.084 201.18 107.16C201.272 107.236 201.437 107.475 201.548 107.692C201.658 107.909 202.12 108.541 202.573 109.096C203.027 109.652 203.684 110.527 204.033 111.04C204.383 111.554 204.888 112.213 205.155 112.504C205.423 112.796 205.849 113.32 206.102 113.67C206.566 114.312 207.14 114.974 209.41 117.485C210.095 118.242 210.763 118.983 210.894 119.13C211.295 119.578 214.848 123.01 216.59 124.631C217.493 125.471 218.495 126.403 218.815 126.701C220.158 127.951 224.538 131.741 225.491 132.478C225.753 132.68 226.334 133.193 226.782 133.616C227.543 134.335 227.628 134.386 228.069 134.386C228.608 134.386 228.67 134.302 228.67 133.579C228.67 133.227 228.623 133.09 228.485 133.039C228.278 132.963 227.098 132.016 226.286 131.274C225.994 131.008 225.716 130.789 225.666 130.787C225.617 130.785 225.259 130.48 224.872 130.11C224.484 129.74 223.603 128.978 222.915 128.415C222.226 127.852 221.696 127.392 221.737 127.392C221.872 127.392 220.774 126.415 220.287 126.101C220.135 126.003 219.348 125.276 218.538 124.486C217.729 123.696 217.031 123.049 216.988 123.049C216.905 123.048 216.047 122.207 215.446 121.538C215.255 121.324 214.826 120.921 214.493 120.641C213.559 119.857 212.246 118.472 212.246 118.273C212.246 118.218 212.21 118.172 212.166 118.171C212.025 118.167 210.932 117.084 210.242 116.266C209.874 115.829 209.206 115.09 208.758 114.624C208.31 114.157 207.755 113.504 207.525 113.172C207.294 112.841 206.65 112.006 206.092 111.318C205.534 110.63 204.914 109.831 204.715 109.542C204.515 109.253 204.293 108.943 204.222 108.853C204.152 108.763 203.634 108.07 203.071 107.312C202.509 106.554 202.007 105.919 201.955 105.899C201.903 105.88 201.861 105.794 201.861 105.709C201.861 105.624 201.746 105.439 201.604 105.297C201.463 105.156 201.314 104.936 201.274 104.808C201.206 104.593 200.278 103.229 200.015 102.957C199.952 102.892 199.781 102.638 199.636 102.394C199.213 101.683 196.34 97.3623 196.111 97.0913C196.039 97.0065 195.827 96.6966 195.64 96.4025C195.453 96.1085 195.251 95.8103 195.19 95.7399C195.129 95.6696 195.079 95.5622 195.079 95.5015C195.079 95.4408 195.029 95.3911 194.967 95.3911C194.905 95.3911 194.882 95.348 194.914 95.2952C194.965 95.2129 194.767 94.9342 194.15 94.2219C193.743 93.7514 193.596 93.544 193.537 93.3589C193.424 93.0044 192.111 91.2066 190.523 89.2344C190.144 88.7638 189.714 88.2005 189.568 87.9826C189.421 87.7647 188.778 87.0176 188.137 86.3223C187.497 85.6269 186.751 84.808 186.48 84.5025C186.209 84.1969 185.963 83.947 185.934 83.947C185.904 83.947 185.316 83.3713 184.625 82.6677C183.935 81.9641 182.584 80.7418 181.622 79.9515C180.66 79.1611 179.873 78.4633 179.873 78.4008C179.873 78.3383 180.064 78.232 180.297 78.1644C180.834 78.0089 181.632 77.4732 181.987 77.0301C182.138 76.8422 182.304 76.6351 182.356 76.5698C182.572 76.3026 182.671 75.5898 182.626 74.6428C182.599 74.0906 182.534 73.586 182.481 73.5212C182.428 73.4565 182.309 73.1413 182.215 72.8207C182.122 72.5002 181.977 72.0949 181.894 71.92C181.604 71.3139 181.189 69.9276 181.171 69.5093C181.165 69.349 181.12 69.2179 181.073 69.2179C181.025 69.2179 180.995 69.1821 181.006 69.1385C181.018 69.0948 180.97 68.8063 180.9 68.4975C180.829 68.182 180.774 67.1406 180.774 66.1208C180.774 64.6348 180.811 64.1794 180.98 63.6094C181.093 63.2264 181.263 62.627 181.357 62.2773C181.837 60.5066 181.959 60.1132 182.377 58.9904C182.486 58.6978 182.576 58.3627 182.576 58.2457C182.576 58.1287 182.641 57.9388 182.721 57.8239C182.952 57.4932 183.43 56.2287 183.492 55.7895C183.522 55.5695 183.633 55.175 183.739 54.9128C183.844 54.6505 183.96 54.1809 183.996 53.8691C184.033 53.5574 184.112 53.2107 184.172 53.0987C184.232 52.9867 184.254 52.8524 184.222 52.8004C184.19 52.7482 184.207 52.6896 184.26 52.67C184.314 52.6505 184.409 52.2531 184.472 51.7868C184.535 51.3206 184.658 50.6292 184.745 50.2503C184.831 49.8715 184.903 49.3215 184.905 49.028C184.906 48.7345 184.998 47.9716 185.11 47.3326C185.222 46.6935 185.341 45.5663 185.376 44.8275C185.411 44.0887 185.485 43.2403 185.542 42.9421C185.661 42.3151 185.736 41.4345 185.806 39.8658C185.833 39.2539 185.926 38.4614 186.012 38.1046C186.099 37.7479 186.201 36.9612 186.239 36.3562C186.28 35.7125 186.366 35.1905 186.445 35.0975C186.52 35.01 186.656 34.7716 186.748 34.5676C186.841 34.3637 186.961 34.1252 187.016 34.0378C187.072 33.9504 187.221 33.6404 187.348 33.349C187.475 33.0576 187.686 32.5808 187.817 32.2894C187.948 31.998 188.158 31.5318 188.282 31.2534C188.407 30.975 188.51 30.6651 188.51 30.5646C188.51 30.4642 188.605 30.2263 188.721 30.036C188.837 29.8457 188.923 29.6549 188.911 29.6121C188.899 29.5693 188.998 29.2959 189.131 29.0045C189.263 28.7131 189.419 28.2244 189.476 27.9185C189.533 27.6127 189.643 27.2074 189.721 27.0178C189.798 26.8283 189.895 26.3933 189.936 26.0512C189.978 25.709 190.074 25.252 190.15 25.0357C190.273 24.6886 190.368 23.8197 190.469 22.1371C190.486 21.8569 190.529 21.5986 190.564 21.5632C190.694 21.4334 190.624 18.9684 190.46 17.909C190.044 15.2133 188.799 14.1121 187.063 14.904C186.052 15.3652 185.677 15.6662 183.953 17.3989C182.361 18.9997 180.981 20.6635 180.269 21.8412C180.078 22.1564 179.809 22.5193 179.67 22.6477C179.532 22.7761 179.287 23.0908 179.127 23.3468C178.966 23.6028 178.783 23.8473 178.719 23.8901C178.654 23.933 178.643 23.9687 178.692 23.9696C178.742 23.9705 178.647 24.1335 178.48 24.3319C178.314 24.5303 178.035 24.8938 177.86 25.1398C177.685 25.3857 177.208 25.8243 176.801 26.1142L176.059 26.6415L175.105 26.5856C174.358 26.5418 174.027 26.4677 173.577 26.2442C173.261 26.0873 172.951 25.9161 172.888 25.8638C172.648 25.6642 171.816 25.1406 171.736 25.1387C171.69 25.1377 171.595 25.0885 171.524 25.0294C171.454 24.9702 171.206 24.7968 170.972 24.644C170.739 24.4911 170.262 24.1658 169.911 23.9209C169.055 23.3229 167.45 22.6307 166.204 22.322C163.965 21.7673 161.817 21.9066 160.302 22.705C160.087 22.8186 159.851 22.9116 159.778 22.9116C159.665 22.9116 157.081 24.1348 156.614 24.4092C156.207 24.6487 155.043 25.1089 154.654 25.1844C154.479 25.2183 153.978 25.338 153.541 25.4505C152.686 25.6706 150.398 25.9391 149.621 25.9107C148.433 25.8673 146.463 25.6288 146.15 25.4905C145.96 25.4068 145.596 25.2755 145.342 25.1988C144.963 25.0849 143.79 24.411 143.581 24.1868C143.552 24.1557 143.122 23.8574 142.627 23.5241C142.132 23.1908 141.607 22.8079 141.461 22.6733C139.821 21.1569 137.968 20.1706 136.983 20.2894C136.393 20.3606 135.414 20.7382 135.128 21.0044C135.003 21.1209 134.863 21.2166 134.817 21.217C134.564 21.2195 132.878 23.052 132.878 23.3242C132.878 23.3886 132.834 23.4414 132.779 23.4414C132.567 23.4414 131.85 25.1967 131.795 25.8521C131.788 25.925 131.744 25.9845 131.695 25.9845C131.646 25.9845 131.607 26.226 131.607 26.5211C131.607 27.2462 131.998 28.0748 132.573 28.5669C133.065 28.9876 133.021 28.837 133.248 30.9119C133.349 31.8364 133.388 32.1451 133.449 32.5013C133.544 33.0618 133.921 34.4366 134.034 34.6378C134.167 34.8742 134.67 36.3213 134.744 36.6801C134.773 36.8221 134.861 37.0605 134.94 37.21C135.019 37.3594 135.214 37.7678 135.373 38.1174C136.026 39.555 136.306 40.0738 136.675 40.5346C136.889 40.8012 137.3 41.3438 137.59 41.7406C138.586 43.1081 139.059 43.5942 140.334 44.563C141.038 45.0975 141.758 45.6094 141.935 45.7004C142.112 45.7915 142.352 45.9173 142.468 45.98C143.04 46.2878 143.865 46.6476 143.998 46.6476C144.08 46.6476 144.222 46.7119 144.314 46.7904C144.486 46.9368 145.152 47.1887 146.044 47.4448C146.321 47.5243 146.679 47.6597 146.839 47.7458C147.232 47.9566 148.053 48.224 148.826 48.3921C149.176 48.4683 149.639 48.6076 149.856 48.7017C150.072 48.7958 150.382 48.8744 150.544 48.8764C150.707 48.8784 151.03 48.9721 151.263 49.0847C151.496 49.1974 151.832 49.291 152.009 49.2931C152.186 49.2951 152.518 49.392 152.747 49.5086C152.975 49.6251 153.206 49.7205 153.259 49.7205C153.51 49.7205 154.726 50.3474 155.356 50.8015C156.088 51.3296 156.381 51.6586 156.875 52.508C157.144 52.9709 157.167 53.0868 157.119 53.7796C157.091 54.1989 156.993 54.6849 156.903 54.8598C156.813 55.0346 156.636 55.4399 156.509 55.7605C156.181 56.5903 155.639 57.6963 155.479 57.8608C155.404 57.9378 155.343 58.0929 155.343 58.2052C155.343 58.3176 155.295 58.4096 155.237 58.4096C155.179 58.4096 155.131 58.4811 155.131 58.5685C155.131 58.6559 155.084 58.7275 155.026 58.7275C154.969 58.7275 154.856 58.8859 154.775 59.0796C154.694 59.2732 154.485 59.5951 154.311 59.7949C153.97 60.186 153.012 61.6462 153.011 61.775C153.011 61.8181 152.821 62.1281 152.588 62.4639C152.354 62.7996 152.164 63.1095 152.164 63.1526C152.164 63.1957 151.976 63.4932 151.747 63.8138C151.518 64.1343 151.066 64.8546 150.743 65.4147C150.42 65.9746 150.083 66.493 149.994 66.5667C149.905 66.6405 149.833 66.76 149.833 66.8325C149.833 66.9048 149.744 67.0778 149.636 67.2168C149.528 67.3558 149.375 67.6484 149.297 67.8669C149.218 68.0855 149.111 68.2643 149.058 68.2643C149.005 68.2643 148.991 68.3382 149.025 68.4287C149.06 68.5192 149.049 68.5691 149.002 68.5396C148.954 68.5102 148.8 68.6802 148.659 68.9172C148.518 69.1544 148.329 69.428 148.239 69.5254C147.987 69.8 147.607 70.4461 147.607 70.6012C147.607 70.6779 147.509 70.846 147.388 70.9747C147.149 71.2283 147.078 71.3531 146.283 72.9014C145.991 73.4688 145.671 74.0246 145.57 74.1363C145.469 74.2481 145.259 74.5342 145.103 74.7722C144.947 75.0101 144.738 75.3251 144.639 75.4718C144.54 75.6187 144.423 75.8571 144.379 76.0017C144.336 76.1463 144.223 76.3838 144.129 76.5295C143.905 76.8764 143.732 77.1916 143.157 78.3032C142.895 78.81 142.596 79.3189 142.494 79.4341C142.392 79.5491 142.206 79.8607 142.08 80.1262C141.955 80.3918 141.794 80.6806 141.723 80.768C141.652 80.8555 141.53 81.1059 141.453 81.3243C141.376 81.543 141.275 81.7217 141.228 81.7217C141.182 81.7217 141.144 81.8106 141.144 81.9193C141.144 82.0281 141.048 82.2382 140.932 82.3864C140.815 82.5346 140.72 82.6903 140.72 82.7325C140.72 82.7932 140.06 84.0028 139.132 85.6424C138.846 86.1475 137.968 87.9574 137.912 88.1584C137.875 88.2892 137.785 88.4561 137.713 88.5293C137.64 88.6025 137.298 89.1549 136.952 89.757C136.605 90.359 136.218 91.0265 136.091 91.2405C135.68 91.9317 135.42 92.3642 135.221 92.689C135.114 92.8638 135.046 93.0427 135.071 93.0864C135.096 93.13 135.064 93.1659 135.001 93.1659C134.938 93.1659 134.845 93.2732 134.794 93.4043C134.744 93.5353 134.471 93.908 134.188 94.2323C133.905 94.5565 133.482 95.0477 133.249 95.3238C132.773 95.8879 132.386 96.1329 131.972 96.1329C131.6 96.1329 131.047 95.863 130.917 95.6175C130.859 95.5092 130.671 95.2113 130.499 94.9555C130.14 94.4234 129.688 93.5078 129.496 92.927C129.424 92.7087 129.321 92.5301 129.267 92.5301C129.214 92.5301 129.179 92.4942 129.19 92.4506C129.233 92.2789 129.042 91.6905 128.906 91.5777C128.827 91.512 128.729 91.2583 128.689 91.0139C128.648 90.7697 128.553 90.4488 128.477 90.3011C128.402 90.1534 128.306 89.8434 128.264 89.6123C128.222 89.3812 128.104 89.0253 128.003 88.8213C127.901 88.6173 127.791 88.2273 127.759 87.9545C127.726 87.6818 127.625 87.3146 127.534 87.1386C127.443 86.9626 127.368 86.7199 127.368 86.5994C127.368 86.4788 127.249 86.0389 127.103 85.6219C126.958 85.2049 126.837 84.7409 126.836 84.5908C126.835 84.4407 126.739 84.1099 126.624 83.8559C126.509 83.6018 126.415 83.2839 126.415 83.1495C126.415 83.0149 126.326 82.6983 126.219 82.4458C126.111 82.1933 125.991 81.8171 125.953 81.6098C125.914 81.4025 125.788 81.0467 125.672 80.8191C125.556 80.5916 125.461 80.3252 125.461 80.2274C125.461 80.1295 125.367 79.8416 125.251 79.5875C125.136 79.3335 125.041 78.999 125.039 78.8443C125.038 78.6894 124.948 78.3795 124.838 78.1555C124.729 77.9314 124.59 77.5573 124.53 77.3242C124.37 76.7083 124.087 75.903 123.858 75.4168C123.749 75.1837 123.659 74.9357 123.659 74.8655C123.66 74.6394 123.419 74.2031 123.326 74.2608C123.276 74.2916 123.236 74.1901 123.236 74.0354C123.236 73.8807 123.143 73.6247 123.031 73.4664C122.918 73.3082 122.791 73.0385 122.749 72.8672C122.707 72.696 122.59 72.3889 122.491 72.1849C121.338 69.8259 120.705 68.6336 120.468 68.3735C120.311 68.2013 119.983 67.701 119.741 67.2616C119.498 66.8223 119.256 66.4629 119.202 66.4629C119.147 66.4629 119.103 66.3953 119.103 66.3127C119.103 66.2302 119.067 66.1468 119.024 66.1273C118.98 66.1079 118.708 65.8108 118.419 65.4671C117.478 64.3464 115.545 62.5427 114.61 61.9133C114.313 61.713 113.843 61.371 113.567 61.153C113.29 60.935 112.814 60.6312 112.507 60.4779C112.201 60.3246 111.831 60.1363 111.686 60.0596C111.54 59.9828 111.206 59.8255 110.944 59.7101C110.681 59.5946 110.252 59.3977 109.99 59.2724C109.728 59.1472 109.457 59.0449 109.388 59.045C109.32 59.0453 109.191 58.9733 109.103 58.8851C108.853 58.6349 108.968 52.5287 109.259 50.6742C109.318 50.2954 109.4 48.9139 109.44 47.6042L109.513 45.2231L110.785 45.1944C111.776 45.1719 112.166 45.1186 112.553 44.9529C112.826 44.8359 113.16 44.7399 113.295 44.7395C113.429 44.7391 113.683 44.6441 113.858 44.5283C114.033 44.4124 114.252 44.3174 114.345 44.3171C114.439 44.3167 114.665 44.1729 114.849 43.9975C115.032 43.8222 115.182 43.7109 115.182 43.7503C115.182 43.7896 115.367 43.6212 115.594 43.376C116.365 42.5408 117.292 40.2794 117.299 39.2169C117.3 39.0056 117.377 38.6242 117.468 38.3692C117.56 38.1141 117.676 37.3333 117.727 36.6339C117.779 35.9346 117.894 35.0524 117.983 34.6736C118.073 34.2948 118.147 33.7149 118.148 33.385C118.15 32.6161 118.489 31.7257 119 31.1471C119.388 30.708 120.382 30.1171 120.733 30.1171C120.831 30.1171 120.938 30.0459 120.972 29.9588C121.005 29.8717 121.07 29.8235 121.115 29.8517C121.161 29.8799 121.257 29.8324 121.328 29.7463C121.4 29.6601 121.496 29.6131 121.542 29.6417C121.589 29.6703 121.869 29.5018 122.166 29.2672C122.676 28.864 122.706 28.8137 122.706 28.349C122.706 27.6093 122.27 27.0212 120.943 25.9719C120.325 25.4834 119.432 24.7323 118.958 24.3029C118.484 23.8733 117.835 23.3011 117.516 23.0313C117.197 22.7614 116.817 22.3976 116.671 22.2228C116.525 22.048 116.259 21.7553 116.081 21.5724C115.903 21.3896 115.771 21.1984 115.788 21.1478C115.805 21.097 115.697 20.9248 115.549 20.7649C115.401 20.6051 115.313 20.4744 115.353 20.4744C115.394 20.4744 115.352 20.3909 115.26 20.289C115.168 20.187 115.022 19.9128 114.936 19.6797C114.405 18.2439 114.297 17.9726 114.215 17.8677C114.164 17.8037 114.094 17.3507 114.059 16.861C114.024 16.3715 113.907 15.6133 113.799 15.1762C113.691 14.7391 113.586 14.1669 113.565 13.9046C113.488 12.934 112.857 11.3249 112.333 10.7626C112.217 10.6382 112.145 10.5134 112.173 10.4856C112.262 10.3962 111.175 9.48505 110.574 9.14628C110.149 8.90627 109.977 8.74097 109.931 8.52724C109.821 8.01988 109.321 7.09439 109.129 7.04427C109.028 7.01778 108.921 6.93269 108.891 6.85534C108.756 6.50216 106.431 5.21755 105.666 5.07281C105.473 5.03625 105.243 4.93431 105.155 4.84604C105.067 4.75788 104.891 4.68529 104.764 4.68466C104.637 4.68413 104.278 4.56492 103.966 4.41975C103.654 4.27468 103.316 4.1559 103.214 4.1559C103.113 4.1559 102.748 4.05777 102.404 3.93782C102.059 3.81776 101.599 3.73564 101.38 3.75514C101.162 3.77464 100.983 3.76075 100.983 3.7242C100.983 3.63063 99.5806 3.32948 98.7579 3.2463C98.379 3.20804 98.0351 3.12285 97.9935 3.05705C97.9397 2.97185 96.733 2.93307 93.808 2.92268C91.5474 2.91463 89.543 2.92957 89.3535 2.95585ZM92.559 4.32099C92.5007 4.33879 91.6544 4.40682 90.6783 4.4722C89.4598 4.55379 88.7157 4.65562 88.3041 4.7973C87.9742 4.91079 87.5669 5.00361 87.3989 5.00361C87.2309 5.00361 86.9165 5.0922 86.7002 5.20049C86.484 5.30879 86.0877 5.42609 85.8196 5.46116C85.5515 5.49634 85.1939 5.59531 85.0249 5.68125C84.8559 5.76708 84.4315 5.96396 84.0818 6.11867C82.5776 6.78434 81.8871 7.16295 81.4062 7.58596C81.2751 7.70125 81.1678 7.75285 81.1678 7.70061C81.1678 7.64837 81.0937 7.71121 81.0032 7.84049C80.9128 7.96966 80.4394 8.40888 79.9513 8.81652C79.4633 9.22417 78.9293 9.75176 78.7649 9.98891C78.4554 10.4349 77.6656 11.4801 77.5675 11.5734C77.5368 11.6025 77.3211 11.9144 77.088 12.2664C76.6365 12.9486 76.3851 13.4384 75.9209 14.5404C75.7613 14.9192 75.5414 15.4251 75.4323 15.6647C75.3231 15.9042 75.2338 16.1508 75.2338 16.2129C75.2338 16.35 74.6733 17.7628 74.4454 18.1994C74.3553 18.3725 74.2809 18.6094 74.2801 18.726C74.2794 18.8425 74.2123 19.0654 74.131 19.2211C74.0498 19.3769 73.9309 19.7487 73.8668 20.0477C73.8028 20.3465 73.6849 20.7197 73.6051 20.8771C73.5252 21.0344 73.4267 21.3916 73.386 21.6709C73.3454 21.9502 73.221 22.3793 73.1096 22.6246C72.9984 22.8698 72.9062 23.1888 72.9049 23.3334C72.9036 23.4779 72.8122 23.8356 72.7017 24.1281C72.5913 24.4206 72.4519 24.8507 72.3923 25.0838C72.2354 25.6957 71.86 26.7369 71.7469 26.8738C71.6936 26.9384 71.6149 27.1819 71.572 27.415C71.5291 27.6482 71.4056 28.0051 71.2976 28.2082C71.1896 28.4113 71.1012 28.6604 71.1012 28.7616C71.1012 28.8629 71 29.1736 70.8765 29.452C70.3297 30.683 70.2535 30.8721 70.2535 30.9977C70.2535 31.174 68.825 34.0132 68.6244 34.2354C68.5385 34.3307 68.1347 34.8855 67.7273 35.4683C67.3199 36.0511 66.9081 36.6361 66.8123 36.7681C66.7166 36.9002 66.1284 37.4104 65.5053 37.902C64.8823 38.3936 64.2994 38.8578 64.21 38.9335C63.7513 39.3222 63.2848 39.6321 63.0479 39.7055C62.9022 39.7508 62.6638 39.8649 62.5181 39.9592C61.7531 40.4546 58.7589 41.5613 58.1838 41.5613C58.0579 41.5613 57.7776 41.6359 57.5609 41.727C57.3442 41.8181 56.7802 41.9371 56.3075 41.9914C55.8349 42.0456 55.2494 42.1602 55.0064 42.2459C54.7633 42.3316 54.1248 42.4268 53.5874 42.4572C53.0501 42.4877 52.3005 42.5706 51.9217 42.6415C51.0065 42.8125 44.6402 42.8169 43.0737 42.6476C42.4326 42.5783 41.2166 42.494 40.3716 42.4603C39.5265 42.4266 38.3106 42.3197 37.6695 42.2226C35.9688 41.9652 29.6914 41.9598 28.7685 42.2149C28.4188 42.3115 27.8786 42.4193 27.568 42.4544C27.2573 42.4895 26.869 42.5876 26.7049 42.6725C26.5408 42.7574 26.1989 42.8587 25.9451 42.8977C25.6913 42.9367 25.3066 43.0573 25.0905 43.1657C24.8742 43.274 24.6438 43.3627 24.5785 43.3627C24.5131 43.3627 24.1655 43.5369 23.806 43.7498C23.4465 43.9626 23.0429 44.1953 22.9091 44.2669C22.6565 44.4019 21.3248 45.6593 21.1391 45.9382C21.0808 46.0257 20.7995 46.4238 20.514 46.8228C20.2284 47.2218 19.9297 47.6913 19.8501 47.8661C19.7705 48.041 19.6614 48.2556 19.6077 48.343C19.2972 48.8483 18.8749 49.9375 18.5458 51.0821C18.4394 51.4521 18.2999 51.8074 18.2358 51.8715C18.1715 51.9357 18.1198 52.1336 18.1206 52.3113C18.1214 52.4892 18.0309 52.9445 17.9193 53.3233C17.5503 54.5763 17.3617 55.3806 17.2607 56.1314C17.165 56.8422 16.8913 58.6903 16.7662 59.4692C16.6914 59.9355 16.6984 71.2768 16.7738 71.7081C17.0029 73.0183 17.1575 74.4215 17.1778 75.3737C17.191 75.9911 17.284 76.8971 17.3844 77.387C17.5488 78.188 17.6944 79.9667 17.8735 83.3642C17.9477 84.7726 17.643 88.516 17.4188 88.9496C17.3365 89.1086 17.2255 89.5143 17.1719 89.8512C17.0714 90.4826 16.7755 91.3973 16.4167 92.1857C16.3039 92.4334 16.113 92.8626 15.9923 93.1394C15.8716 93.4162 15.73 93.7142 15.6776 93.8016C15.1453 94.6891 14.7832 95.2504 14.6862 95.3381C14.5551 95.4568 14.0626 96.2059 13.9546 96.4507C13.916 96.5382 13.5253 97.1104 13.0862 97.7223C12.6472 98.3343 12.2382 98.9527 12.1774 99.0965C12.1165 99.2403 11.9131 99.5502 11.7252 99.7852C11.2031 100.438 10.3837 101.695 10.3837 101.843C10.3837 101.916 10.1691 102.419 9.90686 102.962C9.6446 103.505 9.43003 104.072 9.43003 104.222C9.43003 104.373 9.33074 104.762 9.2093 105.086C8.89374 105.93 8.89342 107.942 9.20888 108.637C9.32798 108.899 9.42642 109.223 9.42769 109.356C9.42897 109.49 9.52539 109.786 9.64195 110.014C9.75851 110.243 9.85388 110.481 9.85388 110.544C9.85388 110.914 11.0621 113.002 11.7446 113.812C11.9978 114.113 12.1702 114.359 12.1277 114.359C12.0853 114.359 12.1787 114.459 12.3354 114.583C12.492 114.706 12.6006 114.826 12.5766 114.85C12.5527 114.874 12.7052 115.072 12.9154 115.29C13.1256 115.507 13.5127 115.923 13.7754 116.214C14.0381 116.505 14.6532 117.077 15.1423 117.485C15.6315 117.893 16.2685 118.441 16.558 118.703C16.8475 118.965 17.1622 119.222 17.2574 119.274C17.3524 119.326 17.9581 119.716 18.6033 120.143C19.2485 120.569 20.1068 121.093 20.5107 121.307C20.9145 121.521 21.3587 121.786 21.4978 121.895C21.6368 122.005 21.7962 122.094 21.8519 122.094C21.9077 122.094 22.0746 122.189 22.2228 122.306C22.371 122.423 22.5836 122.518 22.6954 122.518C22.8071 122.518 23.0748 122.613 23.2904 122.728C23.8485 123.028 24.8503 123.472 24.9681 123.472C25.023 123.472 25.2549 123.567 25.4836 123.684C25.7123 123.8 26.0294 123.895 26.1885 123.895C26.3476 123.895 26.5065 123.942 26.5414 123.999C26.5765 124.055 26.9213 124.199 27.3078 124.319C27.6941 124.438 28.0617 124.576 28.1246 124.626C28.1873 124.676 28.4771 124.749 28.7685 124.789C29.0599 124.83 29.5504 124.955 29.8587 125.068C30.1668 125.181 30.6198 125.274 30.8653 125.274C31.1107 125.275 31.5977 125.364 31.9474 125.473C32.2971 125.581 33.0839 125.704 33.6958 125.746C34.3078 125.788 35.1876 125.889 35.6511 125.971C36.8344 126.178 41.1649 126.177 42.4379 125.969C42.9624 125.884 43.773 125.783 44.2393 125.746C44.7055 125.708 45.4238 125.586 45.8355 125.475C46.2472 125.364 46.724 125.271 46.8952 125.268C47.0663 125.266 47.397 125.191 47.6301 125.103C47.8633 125.015 48.3036 124.88 48.6087 124.804C48.9139 124.728 49.2238 124.617 49.2975 124.558C49.3712 124.498 49.5832 124.417 49.7686 124.378C49.9539 124.338 50.159 124.241 50.2241 124.163C50.2894 124.084 50.5764 123.964 50.862 123.895C51.1477 123.827 51.4372 123.704 51.5056 123.621C51.5739 123.539 51.6798 123.472 51.7408 123.472C51.9374 123.472 53.2433 122.804 53.331 122.658C53.3776 122.581 53.4621 122.518 53.5187 122.518C54.028 122.518 57.0558 119.75 57.7204 118.677C57.9279 118.342 58.1314 118.067 58.1725 118.067C58.2137 118.067 58.3281 117.889 58.4266 117.67C58.6129 117.257 58.8523 116.825 59.1464 116.372C59.2411 116.226 59.3492 115.959 59.3871 115.777C59.4248 115.596 59.5487 115.347 59.6624 115.225C59.776 115.103 59.8689 114.966 59.8687 114.919C59.8686 114.873 59.9708 114.621 60.096 114.359C60.529 113.451 60.6103 113.244 60.6787 112.875C60.7164 112.671 60.8415 112.316 60.9566 112.086C61.0717 111.856 61.1885 111.452 61.2161 111.187C61.2437 110.922 61.3093 110.625 61.3617 110.527C61.4143 110.429 61.5093 110.094 61.5731 109.784C61.6369 109.473 61.7802 108.916 61.8916 108.546C62.0031 108.176 62.0964 107.651 62.0989 107.38C62.1014 107.11 62.1737 106.697 62.2595 106.464C62.3453 106.231 62.4649 105.663 62.5252 105.202C62.5856 104.741 62.6899 104.264 62.7568 104.142C62.9174 103.851 62.9326 103.761 63.0009 102.703C63.0329 102.207 63.1273 101.536 63.2108 101.21C63.2942 100.885 63.4059 100.122 63.4589 99.5148C63.5119 98.9077 63.628 98.1488 63.7169 97.8283C63.8057 97.5077 63.9039 96.8878 63.9351 96.4507C63.9662 96.0136 64.0609 95.4602 64.1455 95.2209C64.2302 94.9816 64.3327 94.4809 64.3735 94.1083C64.4144 93.7356 64.5081 93.3116 64.5819 93.1659C64.6555 93.0201 64.7483 92.6625 64.7881 92.3711C64.867 91.7916 65.1895 90.7218 65.4995 90.0106C65.6081 89.7613 65.6974 89.4991 65.698 89.4277C65.6985 89.3564 65.8162 89.0597 65.9596 88.7683C66.103 88.4769 66.2218 88.1617 66.2236 88.0677C66.2264 87.9204 66.6848 86.8637 66.9539 86.3841C67.0029 86.2967 67.2028 85.9152 67.398 85.5364C67.5931 85.1576 67.7906 84.8 67.8367 84.7417C67.8829 84.6834 68.1986 84.2543 68.5387 83.788C69.2783 82.7735 71.1207 80.7158 71.4445 80.5425C71.5713 80.4747 72.0108 80.1725 72.4212 79.871C73.6115 78.9967 74.5361 78.3682 74.9256 78.1685C75.1242 78.0667 75.3106 77.9543 75.3398 77.9187C75.3689 77.8832 75.5596 77.7708 75.7636 77.6692C75.9676 77.5676 76.206 77.4399 76.2934 77.3854C76.3809 77.3311 76.5239 77.2595 76.6113 77.2264C76.6988 77.1934 77.0087 77.0252 77.3001 76.8525C77.5915 76.6799 77.949 76.4856 78.0946 76.4207C78.2402 76.3559 78.4433 76.2269 78.5457 76.1341C78.7593 75.9407 78.9881 75.8057 79.7524 75.4213C80.0521 75.2706 80.4574 75.0388 80.6531 74.9061C80.988 74.6789 81.1851 74.5803 81.4327 74.5154C81.491 74.5002 81.5972 74.4041 81.6687 74.3021C81.7401 74.2001 81.919 74.0863 82.0661 74.0494C82.2131 74.0125 82.3334 73.9398 82.3334 73.8878C82.3334 73.8359 82.5397 73.6934 82.7919 73.5714C83.1935 73.3769 84.4538 72.3201 85.0138 71.7081C85.2597 71.4394 85.7209 70.3551 85.8251 69.8007C85.869 69.5676 86.0042 69.0895 86.1255 68.7383C86.247 68.3871 86.3695 67.9102 86.3979 67.6787C86.4262 67.4471 86.4963 67.1353 86.5535 66.9858C86.6109 66.8363 86.6895 66.431 86.7283 66.0851C86.7671 65.7392 86.8908 64.994 87.0033 64.4292C87.1726 63.5788 87.207 62.9588 87.2031 60.8264C87.2006 59.4097 87.1496 58.0361 87.0898 57.7738C87.03 57.5115 86.9123 56.9393 86.8284 56.5022C86.6597 55.6238 86.0925 54.0483 85.722 53.4293C85.6697 53.3418 85.4513 52.9604 85.2368 52.5816C85.0223 52.2027 84.6839 51.6625 84.485 51.3812C84.286 51.0997 84.0805 50.7573 84.0284 50.6202C83.9041 50.2933 83.0393 49.0499 82.5265 48.4605C82.3037 48.2046 82.1215 47.9532 82.1215 47.902C82.1215 47.8179 81.6663 47.0714 81.4536 46.8065C81.3323 46.6555 81.0535 46.1208 80.4313 44.8462C80.1325 44.2342 79.8125 43.5905 79.72 43.4156C79.4456 42.8969 78.9426 41.2609 78.9426 40.8868C78.9426 40.6962 78.8605 40.2811 78.7602 39.9646C78.4917 39.1171 78.4901 35.0919 78.758 34.2569C78.8595 33.9404 78.9426 33.4955 78.9426 33.2681C78.9426 32.8324 79.3661 31.4843 79.6991 30.8605C79.8075 30.6573 79.8962 30.3803 79.8962 30.2449C79.8962 30.1095 79.9434 30.0278 80.001 30.0634C80.061 30.1005 80.0788 30.058 80.0427 29.9637C80.0079 29.8732 80.0207 29.7992 80.0711 29.7992C80.1213 29.7992 80.2186 29.6205 80.287 29.4019C80.4597 28.8509 81.4816 27.0391 81.6578 26.9715C81.7374 26.941 81.7763 26.8737 81.7442 26.8221C81.6775 26.714 82.1474 26.086 82.9256 25.2437C83.2222 24.9227 83.6708 24.4318 83.9226 24.153C84.1743 23.8743 85.1238 23.0524 86.0324 22.3265C86.9412 21.6007 87.7448 20.9562 87.8182 20.8942C87.8918 20.8323 88.2732 20.6122 88.6659 20.4052C89.0587 20.1981 89.4635 19.9547 89.5655 19.8642C89.6674 19.7739 89.7509 19.7328 89.7509 19.7733C89.7509 19.8138 89.8582 19.7455 89.9893 19.6216C90.1204 19.4977 90.3946 19.3039 90.5986 19.1911C90.8026 19.0782 91.1602 18.8688 91.3933 18.7259C91.6265 18.5828 92.151 18.2958 92.559 18.0878C94.3391 17.1806 94.6949 17.0038 94.9718 16.8895C95.275 16.7642 95.473 16.4039 95.473 15.9768C95.473 15.6029 96.8625 12.6 97.1078 12.4437C97.1731 12.4021 97.303 12.2489 97.3965 12.1032C97.4902 11.9575 98.0136 11.375 98.5596 10.8086C99.3702 9.96814 99.718 9.69327 100.453 9.31169C100.949 9.05462 101.521 8.8091 101.725 8.76608C101.929 8.72306 102.215 8.62208 102.361 8.54165C102.656 8.37847 105.836 7.95673 106.205 8.03186C106.551 8.10232 107.796 8.28395 107.95 8.28638C108.435 8.29412 107.582 7.47565 106.63 7.02032C106.351 6.8866 105.946 6.68812 105.731 6.57919C105.515 6.47026 105.263 6.38115 105.17 6.38115C105.077 6.38115 104.824 6.2915 104.608 6.18193C104.392 6.07236 104 5.94754 103.738 5.90452C103.476 5.8615 103.138 5.76306 102.986 5.6857C102.835 5.60835 102.454 5.51436 102.139 5.47685C101.824 5.43934 101.292 5.31748 100.956 5.20611C100.621 5.09474 100.162 5.00361 99.9368 5.00361C99.7115 5.00361 99.2468 4.91418 98.9041 4.80482C98.454 4.66134 97.6634 4.57234 96.0558 4.48449C94.8319 4.41752 93.5683 4.3461 93.2477 4.32565C92.9272 4.3053 92.6172 4.30319 92.559 4.32099ZM103.897 9.63594C103.205 9.80315 101.884 10.213 101.787 10.2905C101.723 10.3407 101.556 10.4174 101.415 10.4609C100.799 10.65 98.764 12.463 98.4044 13.1425C98.3213 13.2993 98.0568 13.7854 97.8167 14.2225C96.9634 15.7756 96.9309 16.0012 97.616 15.6165C98.0199 15.3896 98.1477 15.3245 98.8638 14.9807C99.1261 14.8548 99.3758 14.7519 99.419 14.752C99.462 14.7522 100.177 14.4256 101.008 14.0265C101.84 13.6272 102.591 13.2706 102.679 13.234C102.766 13.1973 103.028 13.0484 103.261 12.9031C103.494 12.7578 103.852 12.5489 104.056 12.439C104.26 12.3291 104.57 12.1613 104.745 12.0659C104.92 11.9705 105.122 11.8923 105.195 11.8919C105.268 11.8916 105.328 11.8424 105.328 11.7827C105.328 11.723 105.456 11.6253 105.613 11.5658C106.009 11.4152 107.108 10.612 107.552 10.1486C107.858 9.82869 107.894 9.74572 107.764 9.66307C107.605 9.56304 104.295 9.53973 103.897 9.63594ZM94.4663 18.7047C94.2915 18.763 94.0347 18.8988 93.8957 19.0067C93.7567 19.1145 93.6042 19.2028 93.5566 19.2028C93.5091 19.2028 93.2652 19.3406 93.0146 19.5089C92.5283 19.8356 92.0914 20.0879 91.0755 20.629C90.0301 21.1857 87.4516 22.937 86.8899 23.4719C86.8025 23.5552 86.4336 23.8475 86.0701 24.1216C85.7067 24.3956 85.347 24.7088 85.2708 24.8176C85.1947 24.9264 84.7768 25.3904 84.3422 25.8489C83.4903 26.7475 83.4247 26.8301 82.6836 27.9378C81.9816 28.987 81.168 30.6744 81.1674 31.0825C81.1672 31.2217 81.0788 31.4804 80.9709 31.6572C80.8631 31.8341 80.7403 32.2155 80.6981 32.5049C80.6559 32.7943 80.5194 33.4126 80.3949 33.8789C80.1928 34.6357 80.1697 34.9881 80.1796 37.1638C80.1884 39.0864 80.2273 39.724 80.364 40.1837C80.4592 40.5043 80.6012 41.1003 80.6795 41.5083C80.817 42.2247 80.9498 42.5991 81.401 43.5407C81.5178 43.7844 81.5818 44.0347 81.5432 44.097C81.5047 44.1594 81.5237 44.2104 81.5854 44.2104C81.6471 44.2104 81.6976 44.2819 81.6976 44.3693C81.6976 44.4567 81.7421 44.5283 81.7965 44.5283C81.8508 44.5283 81.9269 44.6356 81.9656 44.7667C82.0701 45.1209 82.8526 46.4258 83.1133 46.6805C83.238 46.8024 83.507 47.1739 83.7109 47.5061C83.9149 47.8382 84.3679 48.5385 84.7176 49.0622C85.0673 49.5858 85.4836 50.2224 85.6428 50.4767C86.1017 51.2102 86.1928 51.345 86.3321 51.497C86.5575 51.7431 87.2605 53.2861 87.2246 53.4558C87.2153 53.4995 87.2535 53.5352 87.3095 53.5352C87.3654 53.5352 87.47 53.7379 87.5419 53.9856C87.6137 54.2332 87.7313 54.5313 87.8032 54.6479C87.875 54.7644 87.9652 55.0505 88.0034 55.2836C88.0417 55.5168 88.1605 55.9936 88.2674 56.3433C88.3743 56.693 88.4866 57.3844 88.5172 57.8798C88.5477 58.3751 88.6013 58.8997 88.6364 59.0454C88.7478 59.5093 88.7866 61.6235 88.6927 62.1183C88.643 62.3806 88.5735 63.0243 88.5384 63.5488C88.4475 64.9054 88.3822 65.3905 88.2173 65.933C88.1376 66.1953 88.0422 66.6483 88.0054 66.9397C87.9685 67.2311 87.8644 67.6992 87.7741 67.9797C87.6839 68.2603 87.633 68.5128 87.6611 68.5409C87.7338 68.6136 88.3871 67.7746 88.6383 67.2858C89.6607 65.2963 89.9628 64.6527 89.9628 64.4638C89.9628 64.3919 90.0446 64.1805 90.1446 63.9939C90.2446 63.8074 90.3836 63.4641 90.4536 63.231C90.6824 62.4682 90.9385 61.7552 91.1413 61.3166C91.2507 61.0797 91.3404 60.7399 91.3404 60.5617C91.3404 60.3835 91.4169 60.0289 91.5104 59.774C91.604 59.5189 91.7215 58.8942 91.7716 58.3856C91.8218 57.8771 91.9327 57.2095 92.0182 56.9021C92.1036 56.5947 92.2012 55.7711 92.2349 55.0717C92.2687 54.3723 92.3289 53.4902 92.3688 53.1114C92.4086 52.7326 92.4319 52.3869 92.4206 52.3431C92.4092 52.2994 92.4357 52.2636 92.4795 52.2636C92.5231 52.2634 92.5828 51.6554 92.6119 50.9125C92.6825 49.1136 92.6533 42.536 92.5708 41.6672C92.3899 39.7606 92.3471 38.5877 92.3489 35.5743C92.3503 33.2144 92.3891 32.1613 92.4867 31.8345C92.5614 31.5843 92.6498 31.086 92.683 30.727C92.7993 29.472 93.8655 27.2075 94.2332 27.4346C94.292 27.471 94.3083 27.4494 94.2695 27.3865C94.2307 27.3237 94.3469 27.1669 94.5279 27.0381C94.8171 26.8321 94.8502 26.7576 94.8024 26.4207C94.5405 24.5731 94.504 23.9354 94.5508 22.0109C94.5853 20.5898 94.6542 19.7123 94.7599 19.3474C94.9512 18.6871 94.8941 18.5622 94.4663 18.7047ZM185.504 22.6202C185.076 23.362 184.483 24.5386 184.483 24.6456C184.483 24.7635 184.039 25.7652 183.74 26.3234C183.624 26.5389 183.529 26.8012 183.528 26.9062C183.528 27.0112 183.41 27.3356 183.267 27.627C183.123 27.9184 183.005 28.2344 183.003 28.3293C183.001 28.4241 182.929 28.56 182.843 28.6313C182.757 28.7026 182.655 28.9345 182.615 29.1465C182.575 29.3586 182.456 29.7234 182.349 29.9571C182.243 30.1908 182.155 30.5353 182.154 30.7225C182.153 30.9097 182.049 31.3151 181.923 31.6232C181.717 32.1258 181.693 32.3905 181.684 34.1968C181.675 36.1298 181.685 36.226 181.922 36.6074C182.136 36.9517 182.222 37.0048 182.565 37.0048C183.099 37.0048 183.67 36.5062 184.427 35.3803L185.013 34.5091L185.021 33.3993C185.025 32.7888 185.097 31.9318 185.181 31.4947C185.265 31.0576 185.378 30.08 185.433 29.3224C185.487 28.5648 185.601 27.5872 185.686 27.1501C185.881 26.1497 186.031 22.1698 185.873 22.1698C185.813 22.1698 185.647 22.3725 185.504 22.6202ZM136.525 24.7099C136.403 24.7592 136.061 25.0721 135.763 25.4053C135.347 25.8721 135.16 26.2033 134.946 26.8471C134.794 27.3066 134.698 27.7298 134.734 27.7873C134.933 28.1096 136.617 27.5719 137.329 26.9587C138.191 26.2163 138.552 25.2412 138.151 24.7395C138.03 24.5889 136.876 24.5679 136.525 24.7099ZM96.9565 27.4498L96.5856 27.521L96.6087 28.255C96.6231 28.7115 96.7333 29.2828 96.9001 29.766C97.0477 30.1932 97.1684 30.6403 97.1684 30.7594C97.1684 30.8784 97.2591 31.1522 97.37 31.3677C97.481 31.5833 97.6529 31.9503 97.7521 32.1834C97.9254 32.5912 97.9619 32.7142 98.0813 33.2956C98.1113 33.4411 98.1988 33.5955 98.276 33.6386C98.3532 33.6819 98.4456 33.8339 98.4814 33.9766C98.6329 34.5801 100.001 36.392 100.62 36.808C101.316 37.2765 101.743 37.3659 102.215 37.1425C102.561 36.9782 102.657 36.8494 102.906 36.2101C103.169 35.5341 103.196 35.3382 103.202 34.0005C103.208 32.6392 103.185 32.4632 102.888 31.5771C102.505 30.4338 101.892 29.4812 101.154 28.8833C100.617 28.4484 99.3548 27.7859 99.0626 27.7859C98.9792 27.7859 98.8103 27.7155 98.6874 27.6293C98.425 27.4456 97.4861 27.3482 96.9565 27.4498ZM106.602 40.8493C106.222 41.6547 106.207 41.8925 106.506 42.3768C106.74 42.7554 107.485 43.297 107.682 43.2315C107.872 43.1679 107.781 41.3405 107.558 40.7509C107.262 39.968 107.006 39.9943 106.602 40.8493ZM102.043 59.4542C101.839 59.4991 101.577 59.5869 101.46 59.6493C101.343 59.7116 101.046 59.796 100.798 59.837C100.551 59.878 100.324 59.9516 100.293 60.0005C100.263 60.0495 100.06 60.1482 99.8425 60.22C98.6569 60.6106 97.5876 61.8954 97.5551 62.9685C97.5359 63.6032 97.7711 63.8698 98.6519 64.2117C99.9703 64.7231 103.598 64.7305 105.139 64.2246C105.472 64.1152 105.868 64.0257 106.017 64.0257C106.521 64.0257 107.617 63.4289 107.873 63.0157C108.127 62.6038 108.169 62.0409 107.981 61.5466C107.917 61.3791 107.838 60.9983 107.805 60.7001C107.772 60.4019 107.7 60.1026 107.644 60.0348C107.588 59.9669 107.294 59.8795 106.991 59.8405C106.688 59.8014 106.202 59.6996 105.91 59.6142C105.311 59.4383 102.619 59.327 102.043 59.4542ZM105.963 71.7609C105.343 71.8166 104.416 72.0642 103.924 72.3058C103.822 72.3559 103.655 72.437 103.553 72.4861C103.451 72.5353 103.14 72.6852 102.863 72.8195C102.438 73.0247 101.894 73.4022 100.981 74.1239C100.893 74.1939 100.559 74.4465 100.239 74.6854C99.4596 75.2682 96.6728 78.2254 96.1549 79.0196C95.9268 79.3693 95.3635 80.1561 94.9031 80.768C94.4427 81.38 94.0039 82.0237 93.928 82.1986C93.8522 82.3734 93.6709 82.6424 93.5252 82.7965C93.3795 82.9505 93.2825 83.0986 93.3095 83.1257C93.3366 83.1529 93.2861 83.2353 93.1973 83.3091C93.1085 83.3828 93.0358 83.5054 93.0358 83.5815C93.0358 83.6576 92.9758 83.7829 92.9026 83.86C92.8293 83.9369 92.5846 84.3576 92.3588 84.7947C92.1329 85.2318 91.9187 85.6133 91.8827 85.6424C91.6238 85.8519 89.6016 89.6067 89.392 90.267C89.3305 90.4607 88.8782 91.3139 88.5855 91.7883C88.405 92.081 87.9495 93.1318 87.9495 93.2559C87.9495 93.3234 87.8541 93.5564 87.7376 93.774C87.621 93.9914 87.5257 94.2471 87.5257 94.342C87.5257 94.4371 87.4303 94.636 87.3137 94.7842C87.1972 94.9324 87.1018 95.1315 87.1018 95.2266C87.1018 95.3217 87.0064 95.5865 86.8899 95.815C86.7733 96.0434 86.6779 96.3219 86.6779 96.4337C86.6779 96.623 86.4117 97.2964 85.9379 98.3051C85.7279 98.7523 85.3584 99.9588 85.2402 100.583C85.2015 100.787 85.1077 101.073 85.0316 101.219C84.9554 101.365 84.8425 101.794 84.7807 102.173C84.7189 102.552 84.596 103.122 84.5075 103.441C84.4191 103.76 84.3464 104.189 84.346 104.395C84.3456 104.601 84.256 105.15 84.147 105.617C84.0379 106.083 83.9183 107.084 83.8811 107.842C83.8439 108.6 83.7626 109.529 83.7005 109.908C83.6362 110.299 83.5508 113.485 83.5029 117.273C83.428 123.21 83.3979 124.016 83.2307 124.563L83.0426 125.178L83.5889 125.94C83.8894 126.36 84.2997 126.944 84.5009 127.237C84.9838 127.941 85.4402 128.409 86.8216 129.615C87.9269 130.58 88.1213 130.724 89.0621 131.274C89.8447 131.732 91.6523 132.585 91.8417 132.585C91.9448 132.586 92.1722 132.681 92.347 132.796C92.5219 132.912 92.7547 133.007 92.8643 133.008C92.974 133.008 93.2124 133.098 93.3942 133.208C93.5759 133.317 93.955 133.44 94.2367 133.481C94.5184 133.521 94.9428 133.622 95.1799 133.706C95.4169 133.79 96.1163 133.903 96.7341 133.959C97.3517 134.015 98.1433 134.119 98.493 134.19C99.2943 134.355 103.544 134.354 104.427 134.19C104.777 134.125 105.754 134.017 106.599 133.951C108.396 133.809 108.375 133.812 108.719 133.672C108.864 133.613 109.341 133.53 109.778 133.488C110.215 133.445 110.718 133.343 110.896 133.26C111.074 133.178 111.489 133.066 111.819 133.013C112.148 132.959 112.511 132.865 112.626 132.804C112.74 132.742 113.175 132.644 113.591 132.585C114.007 132.526 114.485 132.406 114.653 132.319C114.822 132.232 115.056 132.161 115.174 132.161C115.291 132.161 115.753 132.041 116.199 131.896C116.646 131.75 117.136 131.631 117.289 131.63C117.441 131.63 117.709 131.556 117.882 131.465C118.056 131.374 118.437 131.25 118.73 131.188C119.023 131.126 119.381 131.016 119.527 130.943C119.673 130.871 119.977 130.778 120.204 130.737C120.43 130.696 120.787 130.57 120.997 130.458C121.206 130.345 121.474 130.253 121.592 130.253C121.709 130.252 121.948 130.157 122.123 130.041C122.298 129.926 122.536 129.83 122.653 129.829C122.769 129.829 123.008 129.733 123.183 129.618C123.357 129.502 123.62 129.407 123.765 129.406C123.911 129.405 124.177 129.315 124.357 129.206C124.537 129.096 124.847 128.971 125.046 128.927C125.245 128.883 125.574 128.758 125.777 128.65C125.98 128.541 126.219 128.452 126.307 128.451C126.395 128.451 126.611 128.356 126.785 128.24C126.96 128.124 127.184 128.029 127.283 128.029C127.382 128.028 127.687 127.909 127.961 127.763C128.235 127.617 128.545 127.498 128.649 127.498C128.754 127.498 128.867 127.454 128.9 127.4C128.977 127.275 130.22 126.651 130.391 126.651C130.461 126.651 130.64 126.555 130.788 126.439C130.936 126.322 131.12 126.227 131.196 126.227C131.48 126.227 135.757 124.032 136.269 123.623C136.357 123.554 136.547 123.462 136.693 123.419C136.839 123.376 137.029 123.281 137.117 123.207C137.204 123.134 137.455 123.011 137.673 122.934C137.892 122.856 138.071 122.754 138.071 122.706C138.071 122.658 138.179 122.577 138.312 122.527C138.445 122.476 138.768 122.275 139.028 122.079C139.473 121.745 139.733 121.57 140.852 120.851C141.1 120.692 141.66 120.299 142.097 119.977C142.534 119.655 143.011 119.313 143.157 119.216C143.303 119.119 143.684 118.792 144.005 118.49C144.325 118.188 144.89 117.671 145.26 117.342C145.63 117.012 146.19 116.409 146.505 116.001C146.82 115.593 147.117 115.211 147.164 115.152C148.264 113.785 148.888 112.632 149.481 110.87C149.707 110.201 149.76 109.808 149.803 108.512C149.854 106.991 149.849 106.943 149.568 106.34C149.187 105.521 148.555 104.884 147.713 104.471C147.03 104.136 147.012 104.133 145.435 104.138C144.029 104.142 143.786 104.17 143.329 104.376C143.045 104.505 142.733 104.61 142.637 104.61C142.541 104.61 142.344 104.693 142.2 104.794C142.056 104.896 141.808 105.051 141.65 105.139C139.889 106.114 139.149 106.616 138.288 107.422C137.906 107.779 137.429 108.163 137.228 108.275C137.026 108.386 136.732 108.607 136.574 108.765C136.415 108.922 135.721 109.489 135.032 110.024C134.343 110.559 133.731 111.05 133.672 111.115C133.477 111.33 132.734 111.872 131.501 112.699C130.831 113.148 130.053 113.676 129.772 113.872C129.492 114.068 128.633 114.539 127.865 114.918C125.914 115.881 125.526 116.054 125.318 116.054C125.217 116.054 125.012 116.135 124.861 116.234C124.485 116.48 123.631 116.781 122.844 116.943C122.483 117.017 122.122 117.133 122.042 117.199C121.962 117.265 121.614 117.352 121.268 117.391C120.922 117.431 120.449 117.532 120.216 117.615C119.982 117.698 119.41 117.806 118.944 117.855C118.478 117.904 117.763 118.015 117.355 118.102C116.947 118.189 115.342 118.321 113.79 118.395C110.341 118.558 106.149 118.394 105.075 118.053C104.733 117.945 104.314 117.856 104.144 117.856C103.974 117.856 103.649 117.76 103.42 117.644C103.192 117.527 102.938 117.432 102.857 117.432C102.475 117.432 101.373 116.718 100.749 116.066C99.3015 114.555 99.1008 114.032 99.0812 111.722C99.0658 109.916 99.1457 109.443 99.718 107.948C99.8296 107.656 99.9617 107.198 100.012 106.93C100.062 106.661 100.181 106.329 100.278 106.191C100.374 106.053 100.453 105.808 100.453 105.646C100.453 105.484 100.504 105.352 100.566 105.352C100.627 105.352 100.648 105.304 100.612 105.246C100.576 105.188 100.621 105.034 100.712 104.904C100.803 104.775 100.877 104.566 100.877 104.44C100.877 104.233 101.075 103.723 101.616 102.544C101.723 102.311 101.843 101.961 101.884 101.767C101.924 101.572 102.144 101.085 102.371 100.684C102.598 100.282 102.785 99.9048 102.785 99.8445C102.785 99.7842 102.88 99.557 102.996 99.3394C103.113 99.122 103.208 98.8783 103.208 98.798C103.208 98.7176 103.3 98.4785 103.412 98.2665C103.706 97.7104 104.162 96.6903 104.162 96.5898C104.162 96.5424 104.253 96.313 104.364 96.0799C104.475 95.8467 104.674 95.3937 104.805 95.0732C104.936 94.7527 105.129 94.2997 105.233 94.0666C105.337 93.8334 105.473 93.5235 105.534 93.3778C105.595 93.2321 105.69 93.0413 105.745 92.9539C105.906 92.6963 106.387 91.5984 106.387 91.487C106.387 91.4306 106.479 91.2012 106.59 90.9772C106.702 90.753 106.864 90.3551 106.951 90.0929C107.255 89.1756 107.449 88.6607 107.573 88.4504C107.641 88.3339 107.735 88.0002 107.782 87.7089C107.828 87.4176 107.937 87.1278 108.023 87.0648C108.109 87.002 108.208 86.7873 108.243 86.5878C108.278 86.3884 108.372 86.1247 108.452 86.002C108.532 85.8793 108.645 85.5455 108.702 85.2603C108.76 84.975 108.881 84.551 108.97 84.3178C109.06 84.0847 109.135 83.7613 109.138 83.5992C109.14 83.4371 109.219 83.1271 109.312 82.9104C109.405 82.6937 109.523 82.1625 109.574 81.7299C109.624 81.2972 109.703 80.9157 109.749 80.8822C109.794 80.8486 109.842 80.7256 109.855 80.6091C109.869 80.4925 109.932 80.0777 109.995 79.6872C110.064 79.2641 110.094 78.0226 110.07 76.6142C110.031 74.3381 110.019 74.2279 109.75 73.6157C109.363 72.7324 109.027 72.3506 108.376 72.0524C107.743 71.763 106.975 71.6701 105.963 71.7609ZM159.291 73.8232C158.77 74.0655 158.741 74.0989 158.836 74.3485C159.053 74.9187 159.744 75.5052 161.309 76.4479C161.67 76.6653 162.07 76.8442 162.198 76.8452C162.325 76.8464 162.459 76.8944 162.494 76.952C162.53 77.0095 162.831 77.1296 163.163 77.219C163.495 77.3084 163.981 77.4502 164.244 77.5342C164.506 77.6181 165.174 77.7369 165.727 77.7982C166.281 77.8594 166.925 77.9593 167.158 78.0202C167.845 78.1997 172.002 78.2723 173.15 78.1249C175.901 77.772 175.94 77.7636 175.726 77.5757C175.617 77.4808 175.171 77.2255 174.734 77.0083C174.297 76.7911 173.653 76.4552 173.304 76.2618C172.954 76.0685 172.529 75.8772 172.359 75.8367C172.189 75.7962 171.903 75.6735 171.723 75.5639C171.543 75.4543 171.287 75.3645 171.154 75.3643C171.02 75.3641 170.734 75.275 170.518 75.1662C170.302 75.0576 169.951 74.9371 169.738 74.8986C169.525 74.86 169.207 74.7563 169.03 74.6682C168.853 74.58 168.455 74.4793 168.145 74.4442C167.835 74.4092 167.439 74.3081 167.264 74.2196C167.089 74.131 166.561 74.0233 166.091 73.9803C165.621 73.9373 165.011 73.8256 164.736 73.7322C164.341 73.598 163.778 73.5627 162.041 73.5635C159.937 73.5645 159.823 73.5753 159.291 73.8232Z" fill="#0C2454"></path>
  </g>
  <defs>
    <clipPath id="clip0_2481_17780">
      <rect width="220" height="220" fill="white" transform="translate(0.709961)"></rect>
    </clipPath>
  </defs>
</svg>
