<?xml version="1.0" encoding="UTF-8"?>
<svg xmlns="http://www.w3.org/2000/svg" width="16" height="22" viewBox="0 0 16 22" fill="none">
  <path d="M13.9353 2.71964H10.5977C9.99457 2.72156 10.0171 3.62042 10.5977 3.61514H13.9353V4.07466H10.5977C9.99793 4.06937 10.02 4.96776 10.5977 4.97016H13.9353V5.43976H10.5977C9.99793 5.43976 10.02 6.33766 10.5977 6.33526H13.9353V6.78277H10.5977C10.0104 6.78709 10.02 7.68595 10.5977 7.68884H13.9353V8.13731H10.5977C10.0104 8.13539 10.008 9.03281 10.5977 9.03281H13.9353V9.48032H10.5977C10.0104 9.48224 10.008 10.3806 10.5977 10.3763H13.9353V10.8349H10.5977C10.0104 10.8296 10.008 11.727 10.5977 11.7304H13.9353V12.1769H10.5977C10.0104 12.1764 10.02 13.0758 10.5977 13.0729H13.9353V20.7445C13.9372 22.0731 15.9553 22.0491 15.9611 20.7445V1.38767C15.9553 0.780744 15.4569 0.0134445 14.6368 0.0110437H10.5977C9.99457 0.0115239 10.0171 0.910387 10.5977 0.906546L13.9353 0.91759V1.36414H10.5977C9.99553 1.36126 10.0181 2.25964 10.5977 2.26012H13.9353V2.71964ZM10.3681 18.178C10.3662 16.6271 8.75863 14.959 6.83799 16.0393V10.1074L5.59581 0.324109C5.56988 0.065302 5.35044 0.00432146 5.20303 0C5.05082 0.00432146 4.74592 0.065302 4.71279 0.324109L3.47685 10.1074V16.0393C1.55621 14.959 0.000480162 16.6376 0 18.166C0.000480162 19.5258 1.04723 20.6426 2.46371 20.6393C3.89075 20.6426 4.91734 19.3909 4.91734 18.166V12.0041H5.3975V18.166C5.3975 19.5373 6.45962 20.5524 7.63986 20.6167C7.62017 21.3687 7.86553 21.3937 8.32745 21.8191C8.86907 22.3185 9.51393 21.6799 9.24936 21.1599C8.99391 20.6759 8.74327 21.4368 8.94686 20.38C9.7977 19.9863 10.3662 19.1575 10.3681 18.178ZM2.51845 19.3981C2.19467 19.3981 1.88415 19.2694 1.65521 19.0405C1.42626 18.8116 1.29764 18.501 1.29764 18.1773C1.29764 17.8535 1.42626 17.543 1.65521 17.314C1.88415 17.0851 2.19467 16.9564 2.51845 16.9564C3.18395 16.9603 3.72606 17.5062 3.73086 18.178C3.72949 18.4998 3.60156 18.8082 3.3747 19.0365C3.14784 19.2648 2.84027 19.3947 2.51845 19.3981ZM6.63392 18.178C6.63504 17.8558 6.76291 17.5471 6.98988 17.3185C7.21686 17.0899 7.52469 16.9598 7.84681 16.9564C8.16904 16.9594 8.47711 17.0893 8.70411 17.318C8.93112 17.5467 9.05872 17.8557 9.05922 18.178C9.05872 18.5001 8.93107 18.809 8.70402 19.0375C8.47698 19.2659 8.16891 19.3955 7.84681 19.3981C7.52478 19.3952 7.21688 19.2655 6.98984 19.0371C6.76279 18.8087 6.63492 18.5 6.63392 18.178Z" fill="#0D2554"></path>
</svg>
