<?xml version="1.0" encoding="UTF-8"?>
<svg xmlns="http://www.w3.org/2000/svg" width="24" height="24" viewBox="0 0 24 24" fill="none">
  <path d="M4.92189 0.0747929C4.60782 0.210732 4.48126 0.388855 4.38751 0.806044L4.35939 0.937294H3.36095C2.49376 0.937294 2.34376 0.951355 2.17501 1.02636C1.91251 1.14823 1.74376 1.37792 1.68282 1.71542C1.60314 2.14198 1.6547 6.50604 1.74845 7.05448C2.00157 8.55448 2.62032 9.78261 3.67501 10.8654C4.59376 11.8123 5.6672 12.4357 6.9797 12.7732C7.22345 12.8389 7.48595 12.8904 7.55626 12.8904H7.68751V15.2904C7.68751 17.8732 7.72501 18.6185 7.87501 19.256C8.45626 21.731 10.5094 23.592 13.0313 23.9295C13.8188 24.0373 14.5078 24.0045 15.2578 23.8264C17.4516 23.3107 19.2328 21.5482 19.7766 19.3639C19.9406 18.7123 19.9688 18.2576 19.9688 16.3123V14.4045L20.1703 14.3482C20.4328 14.2685 20.8781 14.0154 21.15 13.7904C22.5 12.6607 22.7156 10.6592 21.6281 9.29979C21.2109 8.77948 20.7141 8.42792 20.0859 8.21698C19.7578 8.10448 19.6406 8.09042 19.1016 8.09042C18.5672 8.09042 18.4453 8.10917 18.1172 8.21698C17.6109 8.38573 17.2031 8.63417 16.8281 8.99979C15.6 10.2092 15.5344 12.1264 16.6781 13.4529C16.9406 13.7576 17.4047 14.0857 17.85 14.2779L18.2109 14.4326L18.225 16.0873C18.2438 18.4357 18.1875 18.8951 17.7656 19.7623C17.2688 20.7842 16.4953 21.5014 15.4125 21.942C14.925 22.1435 14.4422 22.2279 13.8047 22.2279C12.6328 22.2232 11.5781 21.7873 10.7672 20.967C10.2141 20.4045 9.86251 19.8185 9.62345 19.0451L9.49689 18.6326L9.47814 15.7873L9.46407 12.942L9.68907 12.9139C10.0219 12.867 10.7625 12.6748 11.1234 12.5389C13.2516 11.742 14.8969 9.90917 15.4453 7.73417C15.6469 6.92323 15.6609 6.67948 15.6469 4.00292L15.6328 1.46698L15.4969 1.29354C15.2531 0.970106 15.1172 0.937294 13.9359 0.937294H12.8906V0.806044C12.8859 0.581043 12.7219 0.295105 12.5109 0.15448C12.3469 0.046669 12.2625 0.0232315 12.0234 0.0232315C11.6906 0.0232315 11.4844 0.135731 11.2922 0.412292C11.1797 0.576355 11.1797 0.599792 11.1656 1.74823C11.1516 2.86386 11.1563 2.92479 11.2547 3.12167C11.3859 3.39823 11.6484 3.57167 11.9719 3.59979C12.4359 3.63729 12.8063 3.33729 12.8859 2.85917L12.9141 2.6951L13.4203 2.68104L13.9266 2.66698L13.9078 4.72011C13.8938 6.65604 13.8844 6.79667 13.7859 7.17167C13.4531 8.46073 12.7969 9.44979 11.7656 10.2139C11.1281 10.6873 10.3078 11.0389 9.54845 11.1654C9.1172 11.2357 8.22657 11.2357 7.79532 11.1654C5.85001 10.8467 4.17657 9.34667 3.62814 7.42948C3.44532 6.79198 3.42189 6.48729 3.42189 4.55604V2.67167H3.89064C4.33595 2.67167 4.35939 2.67636 4.37814 2.77479C4.3922 2.83573 4.41564 2.94354 4.4297 3.02323C4.47189 3.22011 4.82814 3.54823 5.03907 3.59042C5.44689 3.66542 5.81251 3.50604 6.00939 3.16385C6.11251 2.98573 6.1172 2.92479 6.13126 1.91698C6.14064 1.24667 6.12657 0.782606 6.09376 0.66073C5.95782 0.15448 5.39064 -0.12677 4.92189 0.0747929ZM19.7109 9.96073C20.6438 10.3873 20.8641 11.592 20.1422 12.3373C19.4625 13.0357 18.2625 12.8623 17.7891 11.9951C17.6156 11.6717 17.5734 11.1889 17.6953 10.8326C17.9672 10.0029 18.9094 9.59511 19.7109 9.96073Z" fill="#0D2554"></path>
</svg>
