<?xml version="1.0" encoding="UTF-8"?>
<svg xmlns="http://www.w3.org/2000/svg" width="18" height="18" viewBox="0 0 18 18" fill="none">
  <path fill-rule="evenodd" clip-rule="evenodd" d="M9 0.00151235C10.2649 -0.0304803 11.4119 0.451003 12.1412 0.886692C12.5892 1.15431 12.7864 1.64314 12.778 2.12098C12.7687 2.6553 12.7697 3.43867 12.8028 4.42835C12.8536 5.94361 12.4774 7.18777 12.2337 7.73634C12.3789 7.82078 12.4564 7.99087 12.4044 8.15774L11.8469 9.94726C11.6873 10.4596 11.2654 10.8508 10.7927 11.0999C10.7862 11.1033 10.7797 11.1068 10.7731 11.1102L10.7963 11.1429C10.7207 11.1911 10.6452 11.2354 10.57 11.2762C10.5493 11.3063 10.5334 11.3378 10.5212 11.3698C10.4804 11.4772 10.5051 11.584 10.5826 11.6918C10.6618 11.802 10.7903 11.9031 10.9294 11.981C11.1001 12.0767 11.2963 12.1356 11.4961 12.1559C14.1363 12.4245 15.7777 13.0694 16.7528 13.8378C17.7317 14.6091 18.0327 15.5003 17.9972 16.2357C17.9727 16.7442 17.5407 17.1003 17.0555 17.2157C15.594 17.5635 12.7377 18.019 9 17.9994C5.26228 18.019 2.40602 17.5635 0.944497 17.2157C0.459324 17.1003 0.0273055 16.7442 0.00276033 16.2357C-0.032707 15.501 0.267752 14.6107 1.24448 13.8399C2.21745 13.0721 3.8551 12.4272 6.48905 12.1574C6.69867 12.1359 6.90427 12.0742 7.08339 11.9739L7.48891 11.7466C7.5101 11.6706 7.52317 11.5632 7.50286 11.4558C7.47943 11.3318 7.41294 11.2109 7.26198 11.1291C7.24362 11.1192 7.22541 11.1094 7.20734 11.0999C6.7346 10.8508 6.31273 10.4596 6.15311 9.94726L5.59561 8.15774C5.54362 7.99087 5.62107 7.82078 5.76628 7.73634C5.52263 7.18777 5.14643 5.94361 5.19716 4.42835C5.23028 3.43867 5.2313 2.6553 5.22196 2.12098C5.21361 1.64314 5.41085 1.15431 5.85882 0.886692C6.58813 0.451003 7.73507 -0.0304803 9 0.00151235ZM9 0.244741C9.00553 0.24489 9.01107 0.245049 9.01661 0.245218L9.01664 0.244326C10.2088 0.216819 11.3013 0.672304 12.0045 1.09242C12.3564 1.3026 12.529 1.69846 12.5217 2.11695C12.5126 2.64033 12.5133 3.399 12.5439 4.35369C10.0617 3.79755 6.87411 4.11038 5.456 4.35676C5.48671 3.40062 5.48746 2.64089 5.4783 2.11695C5.47098 1.69846 5.64364 1.3026 5.99547 1.09242C6.6987 0.672304 7.79123 0.216819 8.98336 0.244326L8.98339 0.245218C8.98893 0.245049 8.99446 0.24489 9 0.244741ZM9 17.7562C8.99335 17.7562 8.98669 17.7562 8.98003 17.7561C5.27261 17.7741 2.44484 17.322 1.00688 16.9799C0.594054 16.8817 0.27666 16.5932 0.258866 16.2246C0.227126 15.5671 0.492482 14.7497 1.40847 14.0268C2.3282 13.301 3.91015 12.6661 6.51658 12.3991C6.75972 12.3742 7.00086 12.3025 7.21381 12.1832L7.56729 11.9851L7.7375 12.1824C8.46756 13.0283 9.86106 12.9327 10.4551 11.9959L10.4806 11.9559C10.5751 12.049 10.6879 12.1281 10.799 12.1904C11.0035 12.305 11.2353 12.3739 11.4688 12.3977C14.0815 12.6635 15.6671 13.2984 16.589 14.0248C17.507 14.7482 17.7729 15.5664 17.7411 16.2246C17.7233 16.5932 17.4059 16.8817 16.9931 16.9799C15.5552 17.322 12.7274 17.7743 9.01997 17.7563C9.01331 17.7564 9.00665 17.7562 9 17.7562ZM10.3433 11.7879C10.2765 11.682 10.236 11.5605 10.2469 11.4307C9.25827 11.8416 8.34425 11.6667 7.75304 11.4018L7.7543 11.4081L7.75521 11.4129C7.78227 11.556 7.76706 11.6955 7.73907 11.8003L7.9359 12.0284C8.55364 12.7442 9.73276 12.6633 10.2354 11.8706L10.3026 11.7647L10.3433 11.7879ZM10.3963 11.0897C10.451 11.0251 10.5215 10.9664 10.6108 10.918C10.6301 10.9076 10.6492 10.8974 10.6681 10.8874C11.1033 10.658 11.4663 10.3107 11.601 9.87837L12.1585 8.08885C12.1821 8.01308 12.1282 7.93538 12.0455 7.92597L9 7.5794L5.9545 7.92597C5.87179 7.93538 5.81787 8.01308 5.84147 8.08885L6.39898 9.87837C6.53366 10.3107 6.89673 10.658 7.33188 10.8874C7.35081 10.8974 7.36992 10.9076 7.38917 10.918C7.40994 10.9293 7.42968 10.9411 7.44843 10.9533L7.45386 10.9469C7.90542 11.2879 9.09886 11.7661 10.3963 11.0897ZM9 7.33451L8.99453 7.33389L8.99437 7.33515L6.01698 7.67398C5.79834 7.19743 5.43159 6.0401 5.44952 4.60518C6.83783 4.35775 10.0795 4.03281 12.5505 4.60524C12.5684 6.04013 12.2017 7.19744 11.983 7.67398L9.00563 7.33515L9.00547 7.33389L9 7.33451Z" fill="#0D2554"></path>
  <path d="M9.01661 0.245218L9 0.244741L8.98339 0.245218L8.98336 0.244326C7.79123 0.216819 6.6987 0.672304 5.99547 1.09242C5.64364 1.3026 5.47098 1.69846 5.4783 2.11695C5.48746 2.64089 5.48671 3.40062 5.456 4.35676C6.87411 4.11038 10.0617 3.79755 12.5439 4.35369C12.5133 3.399 12.5126 2.64033 12.5217 2.11695C12.529 1.69846 12.3564 1.3026 12.0045 1.09242C11.3013 0.672304 10.2088 0.216819 9.01664 0.244326L9.01661 0.245218Z" fill="#0D2554"></path>
  <path d="M10.6108 10.918C10.5215 10.9664 10.451 11.0251 10.3963 11.0897C9.09886 11.7661 7.90542 11.2879 7.45386 10.9469L7.44843 10.9533C7.42968 10.9411 7.40994 10.9293 7.38917 10.918C7.36992 10.9076 7.35081 10.8974 7.33188 10.8874C6.89673 10.658 6.53366 10.3107 6.39898 9.87837L5.84147 8.08885C5.81787 8.01308 5.87179 7.93538 5.9545 7.92597L9 7.5794L12.0455 7.92597C12.1282 7.93538 12.1821 8.01308 12.1585 8.08885L11.601 9.87837C11.4663 10.3107 11.1033 10.658 10.6681 10.8874C10.6492 10.8974 10.6301 10.9076 10.6108 10.918Z" fill="#0D2554"></path>
  <path d="M9 17.7562L8.98003 17.7561C5.27261 17.7741 2.44484 17.322 1.00688 16.9799C0.594054 16.8817 0.27666 16.5932 0.258866 16.2246C0.227126 15.5671 0.492482 14.7497 1.40847 14.0268C2.3282 13.301 3.91015 12.6661 6.51658 12.3991C6.75972 12.3742 7.00086 12.3025 7.21381 12.1832L7.56729 11.9851L7.7375 12.1824C8.46756 13.0283 9.86106 12.9327 10.4551 11.9959L10.4806 11.9559C10.5751 12.049 10.6879 12.1281 10.799 12.1904C11.0035 12.305 11.2353 12.3739 11.4688 12.3977C14.0815 12.6635 15.6671 13.2984 16.589 14.0248C17.507 14.7482 17.7729 15.5664 17.7411 16.2246C17.7233 16.5932 17.4059 16.8817 16.9931 16.9799C15.5552 17.322 12.7274 17.7743 9.01997 17.7563C9.01331 17.7564 9.00665 17.7562 9 17.7562Z" fill="#0D2554"></path>
</svg>
